<?xml version="1.0" standalone="no"?>
<!DOCTYPE svg PUBLIC "-//W3C//DTD SVG 1.1//EN" "http://www.w3.org/Graphics/SVG/1.1/DTD/svg11.dtd" >
<svg xmlns="http://www.w3.org/2000/svg">
<metadata></metadata>
<defs>
<font id="leytonstone_dbregular" horiz-adv-x="1017" >
<font-face units-per-em="2048" ascent="1638" descent="-410" />
<missing-glyph horiz-adv-x="380" />
<glyph horiz-adv-x="2048" />
<glyph horiz-adv-x="2048" />
<glyph unicode="&#xd;" horiz-adv-x="380" />
<glyph unicode=" "  horiz-adv-x="380" />
<glyph unicode="&#x09;" horiz-adv-x="380" />
<glyph unicode="&#xa0;" horiz-adv-x="380" />
<glyph unicode="!" horiz-adv-x="851" d="M104 -2q0 47 17 76q12 29 55 28q41 0 41 -47q0 -29 -17.5 -50t-49.5 -25q-23 0 -46 18zM213 186q0 31 193 324q152 233 358 528l197 283q30 0 53 -25q-25 -43 -45 -75q-45 -74 -140 -224q-176 -281 -358 -551q-195 -293 -223 -311l-21 23z" />
<glyph unicode="&#x22;" horiz-adv-x="630" d="M653 1014v8q0 31 2 81t11.5 149.5t23.5 129.5l49 -12l-22 -369l-23 -18zM774 971q0 63 21 233l10 144q10 10 24 14l27 -14v-58l2 -69v-29v-25q0 -29 -1 -61.5t-7 -75.5q0 -67 -33 -96l-29 16q-8 6 -14 21z" />
<glyph unicode="#" horiz-adv-x="1290" d="M51 438l19 60h315l117 338h-314l19 61h319l156 432h66l-146 -432h340l154 430h69l-149 -430h317l-26 -61h-314l-116 -338h315l-23 -60h-317l-156 -438h-63l147 438h-344l-153 -438h-66l150 438h-316zM457 498h346l117 338h-342z" />
<glyph unicode="$" horiz-adv-x="512" d="M205 106q8 29 13 45.5t15 36.5l76 127q-2 12 -28.5 37t-26.5 60q0 29 27 43l28 -41q18 -23 39 -31q18 12 58 78l51 92l-25 47q-6 16 -10 49q0 84 65 129q51 37 146 45q31 20 78 95q25 43 43 61l18 -2l2 -10q0 -16 -53 -99l-35 -59q53 -18 78 -61l-29 -33l-37 24 q-25 16 -41 17q-59 -70 -106 -160l43 -59q25 -41 24 -70q0 -80 -71 -131q-61 -43 -150 -43q-41 0 -53 -6l-29 -51l-41 -72l-47 -70zM397 365l29 -7q43 0 77 26t34 71q0 18 -12.5 36.5t-28.5 24.5zM500 659q0 -18 16 -26l78 125l-12 4q-33 0 -60 -33q-22 -33 -22 -70z" />
<glyph unicode="%" horiz-adv-x="976" d="M238 -111q0 55 186 254q156 162 371 363l278 252l-102 -39q-43 -12 -94 -12l-62 2l-70 12q-51 -94 -81 -129q-59 -70 -132 -70q-78 0 -120 51q-39 55 -39 136q0 109 69 227q80 135 181 135q66 0 112.5 -54t46.5 -126q0 -55 -12 -111q25 -6 50.5 -10t47.5 -4q84 0 189 43 l194 86l23 -27q0 -20 -8 -34l-31 -33l-840 -793l-69 -74q-29 -39 -58 -94q-31 16 -30 49zM432 698q0 -47 18.5 -79.5t65.5 -32.5q61 0 107 57q27 33 61 113q-31 25 -47 47t-21 57q0 33 12.5 64.5t41.5 70.5l-13 15q-100 0 -168 -107q-57 -96 -57 -205zM655 -113 q0 131 66 248q82 143 197 144q55 0 99 -50.5t44 -109.5q0 -119 -72 -248q-84 -152 -190 -152q-61 0 -105 52q-39 51 -39 116zM670 879l6 -43q6 -15 31 -27l12 47l6 51q0 37 -20 45q-35 -25 -35 -73zM711 -111q0 -41 22.5 -78.5t63.5 -37.5q80 0 151 135q61 121 62 215 q0 37 -26 71.5t-66 34.5q-82 0 -150 -131q-57 -119 -57 -209z" />
<glyph unicode="&#x26;" horiz-adv-x="1525" d="M354 283q0 106 64 202q49 80 145 158q45 35 113 70l131 59q23 12 27 31q0 158 165 272q152 100 322 101q68 0 115 -21q66 -29 65 -88q0 -66 -59 -119q-35 -35 -117 -76l-25 46q10 16 76 59q37 23 47 92q-10 23 -35.5 34t-58.5 11q-121 0 -266 -86q-164 -98 -164 -213 l6 -24l94 8q117 0 195 -39q63 -33 63 -86q0 -49 -49 -78q-37 -18 -96 -18q-94 0 -151 34q-39 23 -119 103q-176 -68 -281 -168q-129 -123 -129 -293q0 -102 82 -170q76 -59 182 -59q143 0 308 79q193 92 192 224q0 18 -10 29.5t-51 39.5l-66 4q-98 0 -184 -49l-154 -110 l-8 6l-8 20q0 25 13 46.5t40 41.5q72 66 171 90.5t226 24.5l92 -2l91 -2q100 0 162.5 12.5t129.5 59.5l15 -11q0 -72 -88 -108q-61 -25 -174 -25l-82 2h-27q-12 0 -45 4l25 -45q12 -25 12 -49q0 -152 -215 -262q-178 -92 -350 -92q-154 0 -252 86q-104 92 -105 244zM907 727 q12 -29 88 -65q74 -31 117 -31q47 0 72 31q0 39 -66.5 57t-124.5 18q-16 0 -38.5 -2t-47.5 -8z" />
<glyph unicode="'" horiz-adv-x="526" d="M610 940v35l123 112q72 59 135 99q18 -14 21 -35v-25l-135 -114q-102 -86 -133 -88z" />
<glyph unicode="(" horiz-adv-x="696" d="M238 -2v20q0 326 219 740q229 434 506 569l30 -43q-29 -39 -78 -82l-84 -78q-139 -152 -260 -333q-147 -225 -178 -377v-29q-47 -125 -63 -217q-6 -41 -10.5 -98.5t-4.5 -128.5h-30l-33 22z" />
<glyph unicode=")" horiz-adv-x="688" d="M336 -45q0 25 76 115l106 118q201 256 331 540t171 591h8q12 0 29 -10q24 -18 24 -47q0 -27 -2 -51.5t-8 -49.5l-33 -117q-55 -184 -110 -323q-29 -76 -63 -146.5t-72.5 -135t-88 -132t-112.5 -145.5l-76 -88q-68 -78 -147 -131h-21z" />
<glyph unicode="*" horiz-adv-x="567" d="M629 1063q0 10 18 29l37 26l10 17l-55 12l-10 20q0 18 16 33l105 -14v117l8 12l43 -12v-52q0 -27 8 -45l53 29q35 18 53 20l19 -6l8 -18q-8 -16 -39 -35l-55 -27q10 -12 43 -18t43 -16l-14 -37l-99 20l-6 -2l-4 -24q0 -18 8 -37l8 -39l-8 -21l-18 -4q-16 0 -29 29l-20 86 l-90 -68h-21z" />
<glyph unicode="+" horiz-adv-x="1140" d="M262 551v61h553v551h62v-551h548v-59h-548v-553h-62v551h-553z" />
<glyph unicode="," horiz-adv-x="505" d="M104 -94q0 41 118 144.5t153 103.5l18 -58q0 -20 -116.5 -120.5t-145.5 -106.5z" />
<glyph unicode="-" horiz-adv-x="833" d="M285 334q141 37 290 37q94 0 168 -15l13 -18q12 -18 12 -35l-2 -16l-33 -2l-51 2q-33 0 -51 4l-168 -2q-20 0 -68 -10l-41 -5q-25 0 -42 16.5t-27 43.5z" />
<glyph unicode="." horiz-adv-x="411" d="M211 2q0 37 7 58.5t42 21.5q29 0 49 -21q10 -10 15 -30q0 -18 -9.5 -33.5t-33.5 -32.5l-41 6q-17 0 -29 31z" />
<glyph unicode="/" horiz-adv-x="1005" d="M395 -76l752 1522h51l-752 -1522h-51z" />
<glyph unicode="0" d="M367 250q0 219 196 500q211 297 422 297q61 0 97 -51.5t36 -114.5q0 -240 -166 -533q-184 -324 -409 -323q-80 0 -128 70.5t-48 154.5zM459 268q0 -59 27.5 -113.5t84.5 -54.5q154 0 322 312q150 283 149 456q0 45 -12 74q-18 41 -59 41q-158 0 -340 -274 q-172 -258 -172 -441z" />
<glyph unicode="1" d="M393 29q14 102 142 293l245 337q145 197 189 293l-2 9h-62v30l84 29l90 47l41 -37q-4 -12 -63 -100l-68 -101l-358 -536q-143 -219 -152 -246l-26 -47h-35z" />
<glyph unicode="2" d="M70 33q0 90 75.5 144t171.5 54q23 0 33 -2t45 -14l72 -14q18 6 25 10l40 37q209 178 336 309q109 117 164 209t55 162q0 84 -81 84q-94 0 -228 -107q-92 -74 -211 -198l-104 -109q-10 10 -14 18l-9 27q0 104 222.5 264t341.5 160q68 0 115.5 -44t47.5 -114 q0 -135 -176 -331q-76 -90 -286 -279l-82 -63l-84 -66l94 -64q66 -39 102 -38q59 0 125 36l129 93l12 -25q-59 -76 -114 -119q-82 -63 -152 -63t-146.5 41t-80.5 43q-35 23 -51 32l-111 -75q-72 -45 -123 -66.5t-88 -21.5q-23 0 -47 30q-18 29 -18 60zM113 33q14 -14 47 -15 l24 7q39 0 135 63l76 53q-10 10 -37 17l-43 4q-61 0 -125 -33q-77 -41 -77 -96z" />
<glyph unicode="3" d="M180 158q0 76 33 141q23 45 86 121l31 -27l-54 -104q-27 -63 -26 -115q0 -68 48 -107.5t114 -39.5q150 0 309 127q172 135 172 278q0 27 -7 53.5t-40 65.5q-45 -31 -109.5 -60.5t-109.5 -29.5q-51 0 -78 16q-39 23 -39 68q0 61 53 94q59 33 125 33q41 0 78 -10 q43 -8 78 -27q96 78 135 127q72 88 72 168q0 35 -27 52t-66 17q-80 0 -174 -69q-53 -39 -141 -131q-33 10 -33 49q0 68 135.5 145.5t212.5 77.5q70 0 119 -35t49 -100q0 -94 -73 -191q-23 -31 -148 -149q12 -18 25 -37q6 -12 24.5 -50t18.5 -73q0 -176 -199 -336 q-188 -147 -375 -147q-88 0 -153.5 58.5t-65.5 146.5zM563 547q8 -10 23.5 -18.5t34.5 -8.5l45 6l47 15l6 6q20 4 38.5 15t26.5 26l-49 16l-45 8q-37 0 -67 -16l-60 -41v-8z" />
<glyph unicode="4" d="M219 338q0 63 171 207.5t484 345.5q37 23 81 47.5t89 44.5q96 45 193 80l29 -51l-156 -217q-166 -227 -246 -375l2 -8l109 -9q82 -12 82 -45q0 -18 -15 -32h-16l-65 4l-66 4l-90 -6l-86 -121q-45 -61 -62 -88q-37 -55 -71 -121q-18 0 -33.5 11t-20.5 34q0 25 68 139 l92 146l-33 8q-90 0 -210 -19q-53 -8 -107.5 -20t-99.5 -27q-14 10 -21 31zM315 377l41 -2q53 0 242 24q92 12 145 13q80 92 195 256l182 266l-12 4l-49 -29l-539 -356q-55 -37 -129 -104z" />
<glyph unicode="5" d="M262 195q0 39 8 63l27 59l51 17l12 -8l-22 -74l-6 -70q0 -47 30 -88q31 -35 82 -35q133 0 301 162t168 293q0 41 -39.5 61.5t-80.5 20.5q-59 0 -123 -29q-29 -12 -115 -61q-37 23 -37 59q0 23 17 49l36 48l43 71l31 41q104 150 141 187q90 90 330 90l45 -2l47 -13 q12 -18 13 -37l-2 -12q-307 -31 -355 -61q-37 -23 -221 -299l80 35q49 18 86 18q76 0 125 -47q53 -43 53 -119q0 -182 -180 -358t-367 -176q-80 0 -129 64.5t-49 150.5z" />
<glyph unicode="6" d="M319 207q0 264 280 570t538 306q29 0 51 -16q23 -12 22 -43h-28q-152 0 -322 -117q-139 -95 -248 -245q49 29 95 45q25 6 45 10t49 4q72 0 127 -56.5t55 -132.5q0 -166 -154.5 -357t-318.5 -191q-82 0 -136.5 68.5t-54.5 154.5zM395 188q0 -49 31 -91t78 -42 q129 0 263 171t134 304q0 47 -31.5 83t-76.5 36q-150 0 -274 -153.5t-124 -307.5z" />
<glyph unicode="7" d="M362 59q0 18 15 41l53 66l676 813q-96 0 -207 -23q-100 -16 -128 -21t-93 -20l-8 9l6 53q4 25 64.5 36t113.5 18t86 11q92 12 180 13q41 0 59.5 -11.5t30.5 -52.5l-45 -51l-41 -45l-718 -911l-27 34q-12 20 -17 41z" />
<glyph unicode="8" d="M297 197q0 125 70 213q78 96 317 182l6 18l-33 76q-12 41 -12 74q0 109 86 209t197 100q80 0 136 -47t56 -123q0 -113 -98 -205q-61 -55 -203 -125q10 -14 26.5 -45.5t28.5 -62.5q4 -12 15.5 -51t11.5 -70q0 -131 -114.5 -248t-247.5 -117q-104 0 -173 62t-69 160z M369 195q0 -53 44 -99.5t99 -46.5q111 0 203 80t92 193q0 47 -25 106q-12 31 -24.5 55.5t-34.5 55.5q-92 -43 -155.5 -76t-80.5 -45q-118 -88 -118 -223zM725 723q6 -18 10 -38.5t37 -68.5q94 39 170 107q94 84 94 166q0 43 -32.5 74.5t-75.5 31.5q-84 0 -146 -73 q-57 -76 -57 -162v-37z" />
<glyph unicode="9" d="M322 25q188 74 319 184q121 98 248 274q-16 -12 -52 -33.5t-59 -31.5q-55 -23 -112 -23q-74 0 -130.5 59.5t-56.5 137.5q0 154 150.5 310.5t304.5 156.5q86 0 142.5 -54.5t56.5 -142.5q0 -205 -224 -485q-209 -264 -413 -357q-25 -12 -80 -24l-62 -16q-25 14 -32 45z M551 604q0 -59 45 -96q16 -10 40.5 -21.5t65.5 -11.5q135 0 246 130t111 269q0 51 -29 87q-25 35 -78 34q-129 0 -265 -130t-136 -261z" />
<glyph unicode=":" horiz-adv-x="565" d="M240 41q0 25 19.5 43t43.5 18q18 0 38.5 -18t20.5 -43q0 -29 -24 -45q-29 -14 -59 -14q-39 22 -39 59zM389 324q0 35 21.5 47t60.5 12q37 -24 37 -61q0 -18 -17.5 -36t-52.5 -18q-49 0 -49 56z" />
<glyph unicode=";" horiz-adv-x="575" d="M104 -57q12 18 130 87.5t145 75.5l20 -14v-51q-59 -49 -163 -107l-107 -55q-12 10 -18 27zM449 391q0 18 11 36.5t46 23.5q27 0 37 -12.5t22 -51.5q-6 -53 -69 -53q-16 0 -33 18q-10 16 -14 39z" />
<glyph unicode="&#x3c;" horiz-adv-x="935" d="M86 528v134l918 393v-99l-836 -360l836 -365v-94z" />
<glyph unicode="=" horiz-adv-x="1732" d="M369 313v78h1532v-78h-1532zM369 774v78h1532v-78h-1532z" />
<glyph unicode="&#x3e;" horiz-adv-x="935" d="M94 137v94l830 365l-830 360v99l922 -393v-134z" />
<glyph unicode="?" horiz-adv-x="1019" d="M104 25q12 41 31 69q29 39 68 39q10 -6 17 -18.5t11 -28.5q0 -23 -25.5 -62.5t-45.5 -39.5q-12 0 -35 12q-14 12 -21 29zM240 293q0 113 223 274l418 283q225 172 225 313q0 53 -49 84q-53 27 -109 27q-162 0 -344 -100q-203 -111 -233 -259l20 -18q57 0 125 33 q41 18 68.5 31.5t60.5 33.5l6 -22q0 -20 -22 -43l-43 -41l-94 -41q-49 -18 -95 -19q-31 0 -59 37q-25 37 -25 74q0 160 246 289q213 111 393 110q94 0 161 -59t67 -154q0 -166 -322 -389q-186 -115 -244 -155q-102 -66 -180 -148t-149 -188h-15l-18 20q-6 8 -8 15.5t-4 11.5 z" />
<glyph unicode="@" horiz-adv-x="1939" d="M483 530q0 350 245 579.5t593 229.5q295 0 479 -157q199 -168 199 -459q0 -197 -88 -352q-106 -186 -291 -187q-170 0 -184 164q-29 -37 -56.5 -65.5t-58.5 -51.5q-72 -49 -154 -49q-127 0 -198.5 84t-71.5 213q0 174 107 330q117 172 286 172q96 0 168 -63 q72 -59 94 -160l60 198h53l-98 -301q-61 -201 -62 -301q0 -49 29 -84q31 -31 80 -30q164 0 258 168q80 141 80 321q0 264 -195 420q-180 143 -452 143q-319 0 -542.5 -223t-223.5 -547q0 -305 221 -502q211 -182 522 -182q158 0 315 56q129 45 289 143l21 -29 q-141 -104 -307 -159.5t-345 -55.5q-334 0 -553 201t-219 536zM946 465q0 -86 59.5 -156.5t147.5 -70.5q152 0 262 165q96 150 96 312q0 88 -59 153q-55 66 -143 66q-160 0 -267 -158q-96 -143 -96 -311z" />
<glyph unicode="A" horiz-adv-x="1837" d="M188 317q0 16 18.5 37t39.5 23q39 -68 70.5 -115t50.5 -63q78 -80 192 -80q141 0 363 190q51 45 133 125t174 180l-129 -8l-4 17q0 66 137 84l102 8q84 102 236 254q182 182 336 299q186 143 272 143q33 0 59.5 -24.5t30.5 -59.5q0 -92 -145 -313l-213 -303l6 -11l39 -20 l10 -25l-8 -24l-51 -2l-60 -2q-78 -100 -141 -217q-80 -147 -80 -240q0 -23 12.5 -49.5t42.5 -26.5q59 0 125 37l176 141q18 0 23 -18q0 -51 -138 -146.5t-196 -95.5q-57 0 -87 53.5t-30 112.5q0 129 88 291l99 160l-242 2l-127 -2l-379 -369q-260 -219 -456 -219 q-94 0 -218 90q-131 96 -131 186zM1458 715l58 -4h57h29h24h74l74 2h20l227 301q154 221 172 315q-12 18 -34 19q-39 0 -156 -97q-94 -78 -150 -133l-352 -356z" />
<glyph unicode="B" horiz-adv-x="1843" d="M289 352v17q0 238 270 512q217 219 496 356q174 88 342 135q102 29 189 43.5t173 14.5q141 0 246 -46q141 -59 141 -182q0 -119 -108 -227q-88 -88 -240 -162q-106 -49 -248 -94q156 -68 215 -144q52 -67 52 -149q0 -184 -177 -311q-158 -111 -354 -111q-82 0 -164 31 t-149 86q-86 -55 -170 -88q-104 -41 -187 -41q-145 0 -236 105.5t-91 254.5zM369 330q0 -104 73 -183q75 -71 180 -71h3q76 0 140 29.5t136 84.5q-12 16 -26.5 37t-28.5 47q-23 41 -39 95l41 32q16 -35 55 -82l68 -75q61 55 192 217q139 174 160 231l-49 10q-39 6 -55 25 l24 31h72q37 0 54 13t38 52l242 443q37 0 39 -27q0 -37 -93 -225l-125 -238q199 45 369 146q231 135 232 288q0 82 -121 125q-86 31 -195 31q-236 0 -565.5 -155.5t-560.5 -383.5q-260 -260 -260 -497zM1044 176q68 -45 127 -67q68 -20 140 -21q156 0 276 84q137 96 137 246 q0 106 -108 178q-68 45 -203 82q-70 -119 -176 -256z" />
<glyph unicode="C" horiz-adv-x="1167" d="M229 401q0 344 351.5 679t701.5 335q53 0 94 -10t84 -37q92 -55 92 -151q0 -135 -182 -314.5t-317 -179.5q-35 0 -64 31q-25 31 -24 71q0 76 67.5 161t145.5 85q12 -6 16 -10l16 -31q-86 -55 -106 -76q-57 -53 -57 -112q0 -25 36 -25q106 0 253 155.5t147 264.5 q0 66 -53.5 93.5t-124.5 27.5q-317 0 -651.5 -321.5t-334.5 -641.5q0 -145 68 -227t213 -82q133 0 270 72q111 55 234 157l22 -18q-68 -133 -225.5 -217t-312.5 -84q-160 0 -259.5 117.5t-99.5 287.5z" />
<glyph unicode="D" horiz-adv-x="1669" d="M55 66q0 92 86 135q70 35 170 35q94 0 238 -33l143 -33l234 326l315 440q166 229 209 262q27 -6 29 -35q0 -43 -154 -276q-68 -104 -143 -215q-82 -119 -162 -230l-223 -303l125 -37q59 -12 120 -12q256 0 496 264t240 531q0 215 -133.5 328.5t-350.5 113.5 q-188 0 -383 -80q-176 -74 -336 -207h-12q-18 12 -18 27q0 129 325 240q274 90 441 90q240 0 389 -137.5t149 -376.5q0 -307 -251.5 -591t-557.5 -284q-100 0 -173.5 13.5t-145.5 52.5q-113 -82 -199 -123q-117 -55 -227 -55q-80 0 -154 43q-86 49 -86 127zM106 68 q0 -43 76 -74q61 -25 117 -25q80 0 156.5 36t154.5 93l-155 45q-41 10 -84 16.5t-78 6.5q-59 0 -123 -21.5t-64 -76.5z" />
<glyph unicode="E" horiz-adv-x="1067" d="M211 256q0 197 131 346q98 111 303 223q0 250 266 435q241 163 503 163h3q84 0 150 -24q92 -35 92 -105q0 -86 -118 -173t-210 -87q-43 0 -51 41q49 18 91 38t87 46q127 74 127 127q0 39 -44 51.5t-103 12.5q-190 0 -388 -105.5t-294 -271.5l-23 -55q-12 -31 -12 -54 l4 -18q18 6 51 12t53 10l115 6q96 0 158 -22q96 -35 96 -111q0 -72 -74 -112q-59 -31 -143 -31q-37 0 -66.5 4t-72.5 16q-72 23 -117 66l-61 61q-143 -59 -246 -186q-113 -141 -113 -285q0 -133 75 -199.5t210 -66.5q166 0 334 88q57 31 293 189l18 -21 q-72 -82 -142.5 -144.5t-140.5 -105.5q-168 -102 -362 -102q-147 0 -263 98.5t-116 245.5zM748 772q98 -104 235 -104h29q18 0 35 4q78 16 77 67q-14 35 -72.5 52.5t-105.5 17.5q-39 0 -73.5 -2t-76.5 -10.5t-48 -24.5z" />
<glyph unicode="F" horiz-adv-x="1683" d="M330 367q0 68 12 104q23 61 76 61l12 -6l-20 -88l-9 -92q0 -135 92.5 -238.5t225.5 -103.5q211 0 399 227q68 80 260 410h-297q0 55 88 74l101 8l82 -2q43 0 65 -4q16 0 23 4l28 37l144 198l149 195l-313 117q-94 31 -176 47t-148 16q-180 0 -275 -110.5t-95 -298.5 l-15 -31l-14 -2q-31 0 -43 38t-12 77q0 197 157 303q137 90 342 90q115 0 242 -31q98 -23 234 -76l98 -39q20 -8 51 -17t45 -11q96 74 191 120q121 57 215 58q61 0 104 -21q61 -29 61 -82q0 -100 -118 -157q-92 -43 -209 -43l-117 6l-115 18q-53 -51 -161 -194 q-115 -152 -138 -205q90 -10 127 -23q43 -10 43 -34q0 -16 -18 -39l-131 4h-23q-59 0 -80 -21l-45 -73q-133 -213 -176 -273q-115 -162 -225 -239q-141 -104 -299 -105q-174 0 -284.5 132t-110.5 315zM1944 1198q82 -29 163 -29q74 0 142 25q90 31 90 92q0 29 -45 41l-64 10 q-82 0 -190 -67z" />
<glyph unicode="G" horiz-adv-x="1423" d="M102 -596q0 121 88 209q35 35 191 137l176 109l299 174q115 68 252 284l119 199l-234 -203q-82 -68 -154.5 -121t-131.5 -88q-164 -96 -275 -96q-90 0 -145 82q-45 72 -45 168q0 150 108 340q88 158 217 293q223 229 531 401q352 195 628 195q90 0 152 -21 q94 -31 94 -102q0 -68 -71 -92l-5 6l2 39q0 49 -44 67.5t-101 18.5q-246 0 -581.5 -177t-577.5 -438q-262 -285 -262 -534q0 -55 30.5 -98t83.5 -43q109 0 289 114q147 92 326 246q129 111 248 229q61 61 131 162l119 174q74 98 139 158q14 14 27.5 20.5t39.5 6.5 q37 0 37 -27l-116 -141l-564 -883l252 115q176 78 246 94l10 -2q0 -29 -26 -43q-45 -45 -282 -148.5t-286 -146.5l-49 -57l-39 -66l-229 -350q-92 -143 -182 -217q-125 -102 -261 -103q-76 0 -124 41q-49 37 -50 115zM186 -555v-27q0 -37 26 -64.5t64 -27.5q125 0 271 154 q66 70 196 264l64 92q47 68 49 94l-227 -118q-106 -57 -211 -123q-158 -96 -182 -125q-49 -53 -50 -119z" />
<glyph unicode="H" horiz-adv-x="1863" d="M289 344q0 20 8 39.5t27 22.5l10 -3l59 -192q49 -117 142 -117q80 0 178 111q41 47 131 182l141 209q27 39 39 62.5t27 54.5l-2 10l-105 -6l-65 -10l-7 14q0 49 123 78l133 30v9q20 14 117 170q123 205 180 278q109 147 164 148l15 -4l14 -9q-6 -16 -25 -39l-51 -61 l-299 -496l293 6l178 7l275 366l79 96l84 93q24 30 62 30h2l18 -12l4 -16q0 -14 -98 -142l-186 -235q-102 -133 -113 -180l41 -15v-18q12 -16 12 -33q0 -12 -10 -29h-108q-96 -156 -142 -243q-78 -162 -78 -267q0 -59 37 -116.5t101 -57.5q80 0 204 101q78 63 113 82l10 -17 v-16q-74 -82 -155 -146q-108 -79 -191 -79h-2q-90 0 -149 96q-51 86 -51 180q0 96 63 242q33 76 119 229l-10 12l-469 -16l-275 -422q-80 -125 -141 -192q-106 -113 -199 -113q-106 0 -194 119q-78 109 -78 225z" />
<glyph unicode="I" horiz-adv-x="991" d="M229 350q0 63 18.5 104.5t71.5 73.5l13 -8q-8 -35 -14.5 -73.5t-6.5 -71.5q0 -90 43 -180q53 -106 140 -107q66 0 130 55.5t164 214.5l480 768l129 172q-322 -137 -361 -161q-225 -129 -225 -291q0 -121 78 -213l-31 -21l-18 -2q-45 0 -76 92q-29 96 -29 152 q0 213 266 354l449 172q18 6 43 19.5t57 34.5q123 77 178 77h1l10 -4l8 -6l4 -10v-12q0 -16 -70 -49l-184 -87q-39 -31 -92 -124l-45 -84l-438 -740q-88 -152 -185 -254q-139 -149 -258 -149q-115 0 -188 125q-61 104 -62 233z" />
<glyph unicode="J" horiz-adv-x="1488" d="M6 -551q0 141 184 313q139 131 390 277q74 45 346 188l118 60q135 68 195 121q111 98 248 414.5t137 467.5q0 72 -29 121q-35 59 -104 59q-250 0 -500 -337q-235 -321 -235 -582q0 -65 22 -123q31 -78 84 -78q29 0 66 12l-27 -40q-29 -35 -72 -35q-74 0 -116 104 q-35 88 -35 172q0 125 46 261.5t120 242.5q109 158 291 301q106 84 198 127t168 43q92 0 149.5 -79t57.5 -177q0 -203 -166 -532l-158 -299l154 67l180 70l19 -15v-26l-240 -113q-178 -86 -211 -127l-305 -379q-180 -211 -352 -338q-145 -106 -248 -165q-172 -98 -272 -99 q-43 0 -73 39t-30 84zM72 -545q0 -25 20.5 -42t48.5 -21q113 0 344 176q203 154 405 364.5t263 327.5h-1q-24 0 -302 -156l-330 -190q-139 -78 -272 -197q-176 -158 -176 -262z" />
<glyph unicode="K" horiz-adv-x="1640" d="M289 66v10l53 37q23 18 39 47l328 514l-45 -8l-46 -2q-66 0 -120 24q-68 31 -68 96q0 96 117 150q94 39 205 39q74 0 147 -19l246 375q14 25 31.5 49.5t44.5 55.5q59 76 90 77l22 -4l37 -18q-57 -57 -121.5 -145.5t-134.5 -198.5l-135 -221l39 -43q109 63 266 168 l264 176l262 180l123 70q94 45 127 45q14 0 33 -17l27 -18l-219 -121l-842 -549q133 -381 151 -420q135 -313 250 -313q82 0 197 90l123 92l16 -22q0 -59 -134 -148.5t-202 -89.5q-135 0 -239 148q-78 111 -150 319l-88 301l-70 -29q-14 -6 -31.5 -14t-35 -22.5t-33.5 -44.5 l-35 -56l-303 -465q-31 -45 -59.5 -71.5t-81.5 -44.5l-35 22zM510 801q0 -29 31 -47q37 -14 104 -15q63 0 102 19.5t99 128.5l-60 12l-47 4q-53 0 -141 -29.5t-88 -72.5zM901 815l37 21l-14 16z" />
<glyph unicode="L" horiz-adv-x="1525" d="M215 106q0 106 102 166q84 49 201 50q88 0 191.5 -33t183.5 -78l51 49l43 55l522 721q-213 61 -298 121t-85 143q0 41 35 62q78 -141 170 -195.5t252 -54.5q121 129 256 217q174 115 307 115q55 0 97 -29q41 -25 41 -80q0 -150 -226 -237q-86 -33 -184 -51.5t-197 -18.5 h-35l-18 2l-213 -280l-211 -291q-61 -82 -115 -150q-34 -45 -106 -131q90 -55 151 -80q90 -37 168 -37q123 0 256 109l127 117l37 -21q-68 -125 -174 -205q-119 -88 -252 -88q-98 0 -243 68l-138 70q-102 -84 -196 -134q-119 -59 -228 -59q-104 0 -178 41q-94 51 -94 147z M295 113q0 -59 76 -97q61 -26 126 -26h5q80 0 176 49q68 37 151 108q-31 16 -75.5 38t-73.5 34q-92 33 -164 33q-88 0 -143 -27q-78 -36 -78 -112zM1706 1104l76 -2q119 0 254 61q154 72 190 170q-10 18 -35 25l-37 6q-104 0 -243 -86q-111 -70 -205 -174z" />
<glyph unicode="M" horiz-adv-x="2138" d="M285 193l4 55l12 2q10 0 52 -83t93 -83q145 0 392 338l424 629q244 340 387 340q25 0 39 -19.5t18 -50.5q0 -104 -117 -338l-225 -448q-121 -246 -121 -336q0 -18 23 -21l14 15l35 40l319 406q262 326 455 516q260 256 373 256q20 0 41.5 -17.5t25.5 -43.5 q0 -66 -129 -287q-82 -141 -252 -389l-163 -238q-41 -63 -68 -135t-27 -131q0 -39 23 -68q26 -26 60 -26h3q70 0 160 63q33 23 137 115q25 -10 25 -25q0 -57 -139.5 -146t-200.5 -89q-55 0 -105.5 68.5t-50.5 132.5q0 137 140 352q6 10 78.5 111.5t199.5 275.5 q162 225 207 356l-12 13q-72 0 -289 -232q-147 -158 -397 -465l-275 -344l-70 -86q-91 -108 -150 -108h-1q-29 0 -48.5 29.5t-19.5 60.5q0 127 117 389l221 442q119 238 119 295q0 23 -18 27q-39 0 -213 -226q-102 -137 -318 -446l-213 -307q-104 -152 -176 -215 q-121 -111 -238 -111q-61 0 -111 59.5t-50 127.5z" />
<glyph unicode="N" horiz-adv-x="1720" d="M262 207q0 29 10 47q10 8 27 8h10q12 -45 24.5 -78.5t28.5 -64.5q29 -55 82 -56q59 0 123 70q23 23 90 121l611 881q41 57 106 133q86 96 127 96q25 0 40 -22.5t15 -75.5v-31q-6 -25 -8 -39l-14 -78l-143 -897l-5 -45v-29q0 -12 17 -20q27 18 205 315l327 572l215 381 q39 -12 39 -62q0 -27 -131 -268q-86 -160 -258 -457l-182 -317q-53 -92 -115 -174q-96 -127 -143 -127q-37 0 -49 45l-8 112q0 162 40 353l87 397q43 203 43 350l-13 8q-18 0 -26 -22q-25 -25 -39 -47l-613 -907q-98 -147 -137 -191q-100 -106 -199 -106q-78 0 -133 69 q-51 74 -51 156z" />
<glyph unicode="O" horiz-adv-x="1277" d="M229 305q0 231 177 526q188 313 395 375l14 -35q-197 -184 -330 -383q-168 -256 -168 -464q0 -109 60 -195q68 -98 174 -98q174 0 399 192q205 174 357 428q80 129 117.5 232.5t37.5 193.5q0 98 -59.5 157.5t-157.5 59.5q-115 0 -274 -127q-131 -102 -221 -223l-64 -88 l-68 -84l-28 29q61 195 264 377q216 192 410 192h2q121 0 197.5 -74.5t76.5 -199.5q0 -201 -155.5 -474.5t-374.5 -461.5q-240 -209 -441 -209q-139 0 -239.5 104.5t-100.5 249.5z" />
<glyph unicode="P" horiz-adv-x="1437" d="M203 324q0 276 235 530q209 227 530.5 371.5t590.5 144.5q160 0 274 -57q145 -74 145 -221q0 -197 -217 -371q-193 -152 -405 -186l-78 -11h-49h-47l-29 4q-86 -141 -160 -239q-111 -150 -215 -234q-135 -106 -254 -106q-143 0 -232 115.5t-89 259.5zM291 319 q0 -113 59 -196q70 -94 176 -94q123 0 271 155q82 88 198 267l35 53q14 23 23 49q-53 33 -79 59.5t-48 81.5h28l64 -43q8 -4 35.5 -15t38.5 -13l4 -7l135 213q96 143 186 250q113 127 207 164l12 -10v-21q-92 -82 -234 -282.5t-200 -323.5h31q197 0 420 144q248 162 248 342 q0 109 -119 163q-90 39 -217 39q-362 0 -713.5 -207.5t-507.5 -531.5q-53 -113 -53 -236z" />
<glyph unicode="Q" horiz-adv-x="1605" d="M453 315q0 223 190.5 484.5t405.5 335.5l16 -17q-203 -147 -350 -350q-176 -244 -176 -455q0 -109 50 -182.5t154 -95.5l35 131q27 78 60 123h30l13 -10l-31 -113q-6 -33 -10 -61.5t-4 -57.5v-27q281 68 544 340q231 244 359 549q20 47 32.5 93.5t12.5 99.5 q0 82 -56.5 140t-140.5 58q-147 0 -317 -133q-109 -84 -248 -252q-35 -43 -98 -114q-6 -8 -17 -21l-20 8q0 160 264 375t440 215q115 0 197 -85t82 -197q0 -326 -351.5 -724.5t-682.5 -445.5q27 -90 63 -127q39 -32 88 -32q68 0 150 51l180 127l8 -6q-37 -94 -140.5 -174 t-195.5 -80q-123 0 -190 129l-64 123q-133 29 -207.5 133t-74.5 245z" />
<glyph unicode="R" horiz-adv-x="1810" d="M193 221q0 303 256 584q227 248 576 407.5t642 159.5q186 0 277 -63q76 -53 75 -150q0 -154 -137 -282q-102 -96 -305 -191l-305 -131l168 -268q147 -215 225 -215q49 0 107 39l163 120l15 -20q0 -41 -118 -130t-161 -89l-12 -8q-80 0 -139 47q-39 35 -97 119l-129 223 q-109 174 -149 174l-33 -6l-162 -242q-111 -160 -211 -248q-130 -114 -243 -114h-2q-129 0 -215 76.5t-86 207.5zM270 244q0 -86 56.5 -160t144.5 -74q141 0 307 199l221 326q-102 12 -143 26q-90 31 -90 98q0 53 45 84q12 8 33 15q35 12 74 12q41 0 92 -17.5t106 -50.5 l215 291q125 154 252 256q29 4 37 -30q-2 -10 -113 -146l-202 -248q-109 -139 -119 -166l24 -28q109 18 217.5 59t225.5 111q282 164 282 338q0 96 -92 137q-59 24 -169 24h-9q-258 0 -587.5 -149.5t-555.5 -382.5q-252 -258 -252 -524zM844 662q16 -29 59 -41l90 -9l56 2 l20 25l-57 33q-51 26 -101 26h-4q-49 0 -63 -20v-16z" />
<glyph unicode="S" horiz-adv-x="1259" d="M215 365q0 57 6 104t23 98q43 139 123 140l22 -7l2 -20q-96 -125 -96 -272q0 -139 107.5 -240.5t250.5 -101.5q166 0 324 120q170 129 170 293q0 98 -139 168l-258 111q-139 74 -140 192q0 174 310 324q131 61 249.5 94t221.5 33q74 0 122 -21q76 -31 76 -88 q0 -74 -131 -172q-53 -39 -100 -64.5t-103 -43.5l-22 43q90 51 158 100q118 87 118 124q0 19 -20.5 32.5t-65.5 13.5q-152 0 -422 -113q-307 -127 -307 -251q0 -78 135 -138l269 -112q141 -84 141 -224q0 -197 -197 -366q-186 -158 -391 -158q-160 0 -295 117 q-141 123 -141 285z" />
<glyph unicode="T" horiz-adv-x="1288" d="M279 420q0 47 12 84t55 37l12 -2l-2 -68q0 -145 39 -260q55 -166 172 -166q104 0 211 121q51 57 146 211l350 584q35 57 104 137q18 23 48 52.5t73 70.5l-264 73q-154 37 -274 37q-172 0 -291 -76q-141 -90 -142 -254q0 -41 2 -59t17.5 -54t54.5 -97l-27 -9q-51 0 -90 72 q-35 76 -34 133q0 205 167 324q147 104 363 104q57 0 86 -2t80 -14q78 -12 174 -43l127 -45q88 -29 121 -33q86 59 157 94q98 49 175 49q53 0 100 -23.5t47 -74.5q0 -90 -115 -133q-84 -27 -194 -27h-29q-16 0 -45 4l-86 19q-57 -51 -123 -123q-72 -80 -104 -139l-283 -484 q-123 -213 -201 -305q-147 -176 -297 -176q-152 0 -231 162q-61 127 -61 299zM1663 1249q47 -12 98 -12q68 0 123 12q92 19 92 64q0 16 -18.5 23t-44.5 12q-29 0 -58.5 -6.5t-66.5 -22.5q-68 -29 -125 -70z" />
<glyph unicode="U" horiz-adv-x="1652" d="M520 254q0 182 185 438q111 156 342 400q186 199 186 241q0 31 -33 31q-51 0 -184 -90q-109 -74 -174 -133l-41 10q31 86 180 183.5t246 97.5q14 0 27.5 -3.5t40 -23t26.5 -49.5q0 -80 -184 -299l-342 -402q-184 -246 -185 -405q0 -53 36 -95t87 -42q160 0 467 325 q164 170 506 611q258 330 301 340l39 -35v-17l-266 -329q-178 -221 -267 -379q-120 -215 -120 -390q0 -73 14 -114q23 -66 80 -66q68 0 151 64q39 31 127 119l29 -35q-63 -98 -139 -154q-93 -71 -188 -71h-3q-68 0 -116 79q-39 72 -39 144q0 47 4 80.5t18 81.5q23 80 62 172 l-72 -78l-70 -84q-98 -113 -245 -227q-184 -141 -287 -142q-66 0 -132.5 87t-66.5 159z" />
<glyph unicode="V" d="M356 84q0 39 2 57.5t15 55.5l39 108l276 727q6 18 16.5 60.5t10.5 93.5q0 53 -37 53q-68 0 -162 -100q-59 -59 -125 -162q-20 16 -20 53q0 72 123.5 181.5t195.5 109.5q53 0 82 -47q23 -39 23 -96q0 -68 -23 -150q-18 -80 -49 -156l-250 -636l-18 -72l-19 -72 q0 -29 21 -47h16q223 158 496.5 486.5t384.5 574.5q25 59 30 117l9 137q0 16 13 29.5t46 17.5q27 0 39 -24.5t16 -59.5q0 -135 -143 -377q-45 -74 -98.5 -153.5t-139.5 -196.5q-57 -82 -138 -174t-179 -191q-260 -260 -363 -260q-37 0 -65 35q-25 35 -25 78z" />
<glyph unicode="W" horiz-adv-x="1785" d="M348 150q0 162 144 399q47 82 266 387q143 205 143 270q0 31 -37 31q-51 0 -143 -90q-35 -31 -123 -133l-27 12q-12 6 -12 21q0 66 134 169t204 103q35 0 61.5 -26.5t26.5 -63.5q0 -109 -143 -328l-267 -393q-145 -236 -145 -367q0 -33 19.5 -65.5t52.5 -34.5 q80 0 315 334l430 620q254 334 383 334q20 0 45 -23.5t25 -48.5q0 -76 -144 -301l-266 -419q-145 -254 -145 -379q0 -39 21.5 -69t56.5 -30q100 0 340 260q109 119 212 251t193 276q197 301 197 414q0 12 -2 20t-13.5 41t-11.5 53q2 14 4 19l27 16h20q33 0 52 -43 q8 -23 12 -40t4 -44q0 -102 -51 -217q-39 -92 -115 -197q-147 -217 -238 -331q-182 -240 -331 -383q-195 -184 -316 -185q-53 0 -99 62.5t-46 120.5q0 160 143 413q76 135 266 408q145 211 146 252q0 23 -19 26q-31 0 -225 -245q-51 -68 -145 -195q-82 -111 -217 -299 l-256 -358q-68 -92 -105 -129q-72 -68 -149 -68q-25 0 -52.5 9t-50.5 26q-49 72 -49 158z" />
<glyph unicode="X" horiz-adv-x="1906" d="M139 311l4 92l11 13h32l39 -33v-47q0 -117 56 -201q66 -94 180 -94q178 0 401 192q203 174 353.5 431.5t150.5 435.5q0 94 -53 148.5t-146 54.5q-160 0 -362 -197q-86 -84 -283 -330l-28 29q49 201 264 387q222 192 420 192h2q129 0 198.5 -82.5t69.5 -216.5l-2 -45 l-8 -53q145 156 338 268q219 127 403 127q96 0 176 -43q96 -55 96 -149q0 -139 -173 -321.5t-314 -182.5q-35 0 -66 31q-27 33 -26 71q0 70 67.5 160t137.5 90l10 -2q23 -16 29 -45q-45 -29 -56.5 -37t-46.5 -36q-57 -57 -57 -111q0 -27 37 -27q111 0 249 160t138 274 q0 55 -49 84q-14 6 -45 16.5t-70 10.5q-309 0 -645 -334t-336 -645q0 -139 67.5 -227t208.5 -88q98 0 207 45q123 53 301 196h33q-25 -121 -221 -231q-176 -96 -320 -96q-170 0 -271 117.5t-101 295.5l2 48q-117 -174 -283 -302q-198 -151 -373 -151h-2q-147 0 -245.5 104.5 t-98.5 253.5z" />
<glyph unicode="Y" horiz-adv-x="1245" d="M457 180q0 70 22 154q31 119 70 119l22 -2l13 -19q0 -16 -6.5 -47t-19.5 -78t-15 -60.5t-2 -31.5q0 -178 161 -178q88 0 191 98q57 53 141 174l299 412l58 72l92 112q-10 0 -27 -12q-14 -6 -24 -21q-133 -127 -230 -204q-47 -37 -102.5 -76t-138.5 -94l-58 -2 q-63 0 -108 45q-41 47 -41 114q0 123 135 320q68 98 137 196q78 111 143 199l-36 23q-59 0 -203 -95q-63 -41 -111.5 -77.5t-79.5 -67.5l-16 6l-6 17q0 82 182 190q94 55 160.5 84t111.5 29q37 0 65 -22.5t28 -63.5q0 -72 -109 -207l-209 -264q-112 -155 -112 -244 q0 -29 24 -66q25 -31 57 -32q98 0 330 204q80 72 170 160q82 80 221 221q197 203 217 207q4 -2 9.5 -4t11.5 -10t10 -27q0 -27 -47 -88l-70 -86l-657 -897q-100 -135 -186 -209q-132 -114 -244 -114h-2q-90 0 -158 73q-63 76 -63 170z" />
<glyph unicode="Z" horiz-adv-x="1488" d="M88 -528q0 162 221 338q80 63 197 130.5t270 143.5l408 186q80 41 110.5 79t30.5 126q0 74 -47 139q-47 -27 -221 -161q-158 -119 -260 -179q-147 -86 -244 -86q-53 0 -94 29t-41 80q0 164 268 319q240 141 422 142h45q23 -6 31 -8l82 -21q90 76 215 248q141 197 141 285 q0 51 -45 82.5t-102 31.5q-129 0 -281 -76q-123 -61 -270 -178q-109 -86 -224 -200q-16 -12 -32 -17q-12 0 -25 19q68 156 374 346t476 190q96 0 153.5 -45t57.5 -137q0 -139 -131 -320q-61 -86 -234 -270q29 -47 49.5 -101.5t20.5 -97.5q0 -33 -4 -60.5t-16 -70.5l233 93 v-50l-236 -110q-20 -12 -30 -35l-17 -35q-78 -170 -269 -380t-406 -357q-244 -162 -418 -162q-37 0 -61.5 8t-51.5 33q-45 41 -45 109zM170 -518q0 -84 82 -84q119 0 350 162q209 145 403.5 345.5t237.5 321.5l-377 -180q-291 -150 -467 -278q-229 -168 -229 -287zM494 309 l22 -30l27 -3q133 0 348 146q121 82 311 244l-88 6q-63 0 -117.5 -10.5t-117.5 -36.5q-115 -45 -224 -129q-23 -18 -45 -35q-33 -27 -53 -47q-57 -54 -63 -105z" />
<glyph unicode="[" horiz-adv-x="598" d="M455 -326v1784h350v-47h-246v-1692h246v-45h-350z" />
<glyph unicode="\" horiz-adv-x="1341" d="M485 1458h50l755 -1524h-53z" />
<glyph unicode="]" horiz-adv-x="598" d="M236 -281h247v1692h-247v47h352v-1784h-352v45z" />
<glyph unicode="^" horiz-adv-x="495" d="M135 627l238 258h102l103 -258h-56l-121 170l-208 -170h-58z" />
<glyph unicode="_" horiz-adv-x="884" d="M51 -236h1127v-51h-1127v51z" />
<glyph unicode="`" horiz-adv-x="598" d="M494 842q0 23 15 36t42 15q45 0 176 -158l86 -108h-61l-146 98q-113 82 -112 117z" />
<glyph unicode="a" horiz-adv-x="774" d="M63 84q0 125 147.5 272.5t274.5 147.5q80 0 113 -76l109 92l41 -53q-100 -100 -144.5 -156.5t-67 -101.5t-22.5 -82q0 -70 66 -70q61 0 155 70l148 109q16 -8 20 -25q0 -41 -137 -137.5t-209 -96.5q-59 0 -90 56q-25 55 -25 127q-78 -78 -131 -119q-94 -72 -155 -72 q-35 0 -66 37q-10 16 -18.5 38t-8.5 40zM143 92q0 -37 27 -39q59 0 201 129q88 80 178 189q0 25 -19.5 44t-50.5 19q-88 0 -212 -124t-124 -218z" />
<glyph unicode="b" horiz-adv-x="722" d="M102 125q0 231 238 545q207 276 438 422l62 30q37 14 63 15q23 0 36 -15.5t15 -42.5q0 -84 -200 -303l-377 -383q-203 -203 -203 -250q0 -35 12.5 -61.5t49.5 -26.5q51 0 134 53.5t103 100.5l-18 53l-11 55q0 63 50 130t116 67q31 0 49.5 -25.5t18.5 -58.5q0 -45 -27 -98 q-4 -14 -55 -90h20q78 0 150 34l137 74q18 -10 23 -31q0 -25 -84 -71q-66 -37 -109 -51l-88 -21l-94 -10q-82 -76 -158 -125q-88 -59 -147 -59t-103 41q-41 45 -41 102zM238 340l532 551q66 70 117 174l-10 16q-154 -55 -372 -314t-267 -427zM518 297l17 -18l49 79 q16 33 24 78l-12 15q-35 0 -53.5 -47.5t-24.5 -106.5z" />
<glyph unicode="c" horiz-adv-x="593" d="M96 143q0 131 135.5 256t266.5 125q47 0 75.5 -16t28.5 -57q0 -43 -33 -82q-23 -27 -69 -62l-37 27q0 10 37 57q16 23 20 49q-10 18 -33 23q-90 0 -199.5 -118t-109.5 -206q0 -43 43 -67.5t94 -24.5q96 0 207 62q31 16 180 129q20 -2 23 -23q0 -72 -174 -160 q-164 -82 -246 -82q-80 0 -144.5 45t-64.5 125z" />
<glyph unicode="d" horiz-adv-x="782" d="M86 104q0 129 123 264.5t250 135.5l28 -2q16 0 43 -17l136 203q80 117 148.5 191.5t168.5 158.5q131 106 186 107q18 0 39 -18.5t21 -41.5q0 -74 -154 -274q-66 -84 -137.5 -166t-175.5 -194l-252 -258q0 -49 18.5 -85t65.5 -36q70 0 188 94l99 84q20 -6 22 -29 q0 -51 -139 -142t-195 -91q-55 0 -88 45q-16 23 -43 94l-121 -86q-78 -47 -139 -47q-41 0 -66.5 33.5t-25.5 76.5zM166 96q12 -24 30 -24h1q31 0 122 57t109 84q6 6 25 66l41 131q0 14 -15 26q-10 12 -24 13q-84 0 -186.5 -131.5t-102.5 -221.5zM549 342l4 -6 q135 123 336 352q229 266 272 385q-156 -55 -360 -311q-184 -233 -252 -420z" />
<glyph unicode="e" horiz-adv-x="532" d="M92 147q0 121 123 250t248 129q29 0 52.5 -19.5t23.5 -47.5q0 -100 -201 -252q-72 -53 -158 -109q24 -57 92 -57q63 0 146 45q27 12 225 164q20 -14 21 -37q-68 -86 -175 -162q-127 -90 -217 -90q-78 0 -129 54.5t-51 131.5zM172 176q137 96 166 121q90 78 123 162l-21 8 q-27 0 -84 -45l-77 -72q-39 -39 -66 -76q-4 -6 -12 -26q-21 -47 -29 -72z" />
<glyph unicode="f" horiz-adv-x="573" d="M-307 -664q0 139 166 453q137 260 346 567q162 242 305 426q55 74 105.5 132.5t97.5 105.5q155 149 255 149h1q18 0 35 -24q10 -20 14 -45q0 -102 -160 -305q-113 -143 -334 -361q-123 -121 -280 -262q35 -16 58.5 -59.5t31.5 -92.5q98 29 194 93q29 18 68 46.5t106 82.5 q18 -6 21 -33q0 -35 -143 -133q-125 -82 -187 -103l-33 -6q-10 0 -16 -8l-18 -76q-12 -74 -21 -94q-55 -184 -184 -356q-160 -213 -314 -213q-45 0 -79.5 34.5t-34.5 81.5zM-231 -662q0 -23 10 -39t37 -18q127 0 297 250q163 241 163 373q0 18 -24 43q-37 6 -53.5 11 t-39 18.5t-61.5 64.5l-200 -342q-129 -246 -129 -361zM164 94q0 -25 22 -50.5t47 -25.5q18 0 29 9l-18 61q-16 35 -51 35q-29 0 -29 -29zM244 276q201 162 397 375q227 246 322 436v15l-7 2q-80 0 -270 -224.5t-442 -603.5z" />
<glyph unicode="g" horiz-adv-x="755" d="M-227 -637q0 186 176 332q115 94 340 192q47 18 139 197l64 127q-94 -88 -156 -137q-113 -90 -172 -90q-35 0 -66 36q-10 16 -18 38t-8 40q0 133 151 271q76 70 146.5 103.5t138.5 33.5q41 0 62.5 -24.5t31.5 -71.5l47 55q12 12 22.5 21.5t35.5 25.5l55 -23 q-90 -100 -174 -245l-142 -269q66 6 209 115q174 125 213 146l15 -17v-16q-68 -76 -156 -144q-80 -57 -182 -114l-88 -41q-29 -12 -50.5 -33t-56.5 -84l-45 -86q-72 -133 -184 -266q-147 -176 -246 -176q-37 0 -69.5 30.5t-32.5 73.5zM-160 -614q0 -16 8.5 -31t26.5 -19 q92 0 231 189q106 147 166 280q-156 -68 -225 -120q-84 -66 -168 -197l-26 -47q-12 -25 -13 -55zM154 111q0 -29 22 -41q90 18 254 166l129 129l-22 51q-15 24 -46 24h-2q-76 0 -205.5 -123.5t-129.5 -205.5z" />
<glyph unicode="h" horiz-adv-x="737" d="M39 45q0 16 31 96l47 109q70 137 110 213q49 94 78 141q150 264 273 400q166 188 309 188q45 -29 45 -80q0 -80 -172 -270l-344 -348q-197 -199 -244 -291q37 47 91 102t112 103q158 133 239 133q23 0 43.5 -17.5t22.5 -46.5q0 -59 -92 -190t-92 -168q0 -18 18 -35 q14 -6 41 -10q68 0 195 96l102 82l20 -41q-78 -78 -155 -137q-111 -80 -187 -80q-41 0 -77 39q-31 41 -31 88q0 61 43 129l127 207l-12 10q-113 -43 -334 -289l-172 -196q-16 0 -27 12q-8 16 -8 51zM303 457l227 239l222 246l84 96l18 35q12 25 12 39q0 10 -14 23 q-106 -37 -221 -166q-88 -100 -185 -260z" />
<glyph unicode="i" horiz-adv-x="358" d="M59 96q0 72 91.5 230.5t150.5 181.5q12 0 23 -10l18 -19q-12 -47 -117 -182q-94 -122 -94 -188l6 -19q18 -25 49 -24q61 0 195 104l102 86q25 0 29 -31l-2 -12q-98 -96 -158 -139q-113 -84 -186 -84q-39 0 -74 33q-33 37 -33 73zM319 602q0 33 24 56.5t56 23.5 q25 0 43 -12l27 -35q-12 -57 -33.5 -75.5t-54.5 -18.5q-27 0 -45 16q-13 16 -17 45z" />
<glyph unicode="j" horiz-adv-x="389" d="M-584 -612q0 104 146 256q113 119 241 200l99 56q53 33 84 77l137 273q111 215 149 235q37 0 43 -41l-118 -239q-66 -125 -140 -230v-10q184 86 289 154q70 43 162 117h8q14 -8 16 -23q0 -18 -13 -33.5t-34 -27.5q-27 -35 -125 -103.5t-133 -68.5l-207 -99 q-168 -270 -280.5 -429t-231.5 -159q-37 0 -63 29q-29 25 -29 66zM-516 -598q0 -29 20 -37q100 27 217 186q68 94 152 256q-164 -102 -219 -151t-107 -127l-41 -66q-18 -32 -22 -61zM291 586q0 25 19.5 38t47.5 17q25 0 48 -16q22 -12 22 -39q0 -16 -12 -35q-23 -27 -58 -27 q-25 0 -47 17q-16 18 -20 45z" />
<glyph unicode="k" horiz-adv-x="757" d="M12 6q0 25 11 51l43 78q2 27 88 170l161 264l119 187q76 127 184 241q145 154 244 154q25 0 41 -23q18 -18 19 -47q0 -80 -168 -266l-336 -340q-205 -205 -252 -297q100 96 262 211q203 141 285 141q25 0 51.5 -19t28.5 -46q0 -86 -148 -189q-113 -76 -231 -110l67 -70 q43 -37 88 -37q61 0 129 43l189 140q12 -6 14 -27q0 -12 -24 -41l-41 -35l-121 -106q-72 -53 -150 -53q-72 0 -139 67q-84 90 -113 105l-59 -2q-4 2 -10 2q-34 0 -101 -68q-45 -45 -98 -111q-33 0 -33 33zM317 227l11 -6l41 -18q53 0 191 93t138 142l-4 13l-16 8 q-51 0 -184 -94q-89 -62 -177 -138zM346 483l129 127q111 111 221 234q121 133 140 176l14 20l14 29l-6 23l-14 4l-17 -2l-26 -13l-29 -22q-16 -11 -22 -29q-33 -29 -67 -63.5t-69 -75.5q-68 -80 -118 -164l-25 -43q-10 -20 -31 -41z" />
<glyph unicode="l" horiz-adv-x="425" d="M98 139q0 133 135.5 367.5t307.5 411.5q189 194 322 194h1q20 0 35.5 -18.5t20.5 -44.5q0 -78 -132 -240q-98 -119 -272 -291l-227 -213l-88 -86q-6 -8 -16.5 -28.5t-10.5 -40.5q0 -31 14.5 -56.5t47.5 -27.5q59 0 157 65q66 41 139 113q25 0 27 -33q0 -51 -141.5 -139 t-200.5 -88q-51 0 -86 49q-18 29 -25.5 51t-7.5 55zM225 336l193 182q182 172 289 295q149 168 149 221l-4 10q-150 -14 -367 -286q-184 -229 -260 -422z" />
<glyph unicode="m" horiz-adv-x="956" d="M6 35q0 41 141.5 259t176.5 224l16 -35l-74 -139q68 86 128.5 129t105.5 43q25 0 44 -24.5t23 -53.5q0 -27 -8 -53l-18 -57q57 68 123 121q85 67 149 67h2q27 0 48.5 -24.5t25.5 -57.5q0 -57 -83 -166.5t-83 -146.5q0 -23 18 -39q14 -6 47 -10q78 0 193 88l98 82 q23 -6 27 -25q0 -51 -138.5 -141t-193.5 -90q-47 0 -92 36.5t-45 86.5q0 63 88 173.5t88 147.5l-14 12q-121 -31 -307 -247l-152 -185l-53 19q0 20 103.5 176.5t103.5 204.5q0 16 -15 28q-76 -25 -178 -137l-164 -195q-80 -98 -104 -98q-25 8 -27 27z" />
<glyph unicode="n" horiz-adv-x="659" d="M2 25q0 31 141.5 254t180.5 256h10l16 -21q-8 -41 -24 -76q-6 -16 -15.5 -33.5t-29.5 -46.5q53 61 104 101q72 55 129 55q78 0 78 -72q0 -59 -85 -177t-85 -154q0 -25 14 -37l37 -17q102 18 199 88l106 86l25 -36q-80 -88 -154 -142q-106 -78 -186 -78q-43 0 -81 35 t-38 78q0 78 72 180q86 123 100 170l-18 13q-59 0 -234 -195l-215 -258z" />
<glyph unicode="o" horiz-adv-x="647" d="M84 125q0 68 86 203t160 135q14 0 18 -4l10 -4q39 57 70 86q45 39 100 39q39 0 66 -34t27 -79q0 -59 -23 -117l-53 -108q78 0 155 34l146 76l12 -43q-70 -70 -168 -105.5t-203 -35.5q-59 -76 -118 -127q-82 -70 -154 -70q-49 0 -92 49q-39 51 -39 105zM156 125 q0 -25 18 -53q16 -19 49 -23q49 0 105 49l82 92q-55 37 -64 95l-6 114q-53 -14 -118.5 -116.5t-65.5 -157.5zM397 332q0 -29 15.5 -53.5t44.5 -28.5l61 100q31 61 31 113q0 20 -10.5 34.5t-34.5 18.5q-43 0 -75 -65.5t-32 -118.5z" />
<glyph unicode="p" horiz-adv-x="587" d="M-442 -631q0 137 110 322q39 66 101.5 145.5t144.5 171.5l244 262q47 53 100 162l72 180l10 43q6 18 39 19q18 0 35 -17q0 -33 -35 -120l-51 -127q59 45 92 63q61 33 108 33q33 0 56.5 -28.5t23.5 -59.5q0 -117 -119.5 -273.5t-234.5 -156.5q-20 0 -49 24l-37 45 l-131 -278q-111 -223 -199 -352q-121 -174 -200 -175q-37 0 -58 39q-10 16 -16 36t-6 42zM-383 -627q0 -31 7 -47q6 -13 27 -13q5 0 11 1q96 68 186 231q55 100 146.5 310.5t128.5 277.5l2 17q-55 -18 -182 -189q-113 -154 -219.5 -340.5t-106.5 -247.5zM209 123 q0 -18 18.5 -45t42.5 -27q63 0 158.5 143.5t95.5 213.5q-6 16 -11 21t-19 9q-86 0 -185.5 -112.5t-99.5 -202.5z" />
<glyph unicode="q" horiz-adv-x="700" d="M25 -635q0 121 131 365q25 47 80 139q49 84 131 211q-61 -55 -84 -70q-59 -39 -101 -39q-41 0 -67 41q-6 12 -16.5 37t-10.5 51q0 129 141.5 268.5t270.5 139.5q47 0 88 -43l18 -10l43 51q29 29 56 35l34 -27l-112 -154l-109 -159q66 12 129 37l209 98l14 -31 q-86 -78 -178 -119q-68 -29 -207 -63l11 -49q0 -180 -113 -475q-129 -346 -272 -347q-35 0 -60.5 38t-25.5 75zM80 -637q0 -37 20 -49q115 55 238 330q111 252 111 407l-15 17q-74 -86 -209 -344q-145 -279 -145 -361zM160 82q0 -16 22 -31q90 16 213 133q94 92 168 199 q-6 33 -21 51.5t-46 20.5q-84 0 -210 -140.5t-126 -232.5z" />
<glyph unicode="r" horiz-adv-x="624" d="M43 170l139 145q88 106 88 170q0 106 19 172q31 111 112 111q20 0 39 -24.5t23 -51.5q0 -31 -19 -80l-73 -147q51 0 112 20l111 43l27 -30q-111 -104 -193 -228q-61 -92 -61 -147q0 -23 20 -41q20 -12 47 -14q72 0 193 96q70 55 110 78l17 -35q-84 -84 -156 -137 q-109 -80 -186 -80q-43 0 -79 44t-36 89q0 80 43 147l117 150l-60 -12l-67 -2q-90 -119 -121 -150q-68 -74 -146 -125zM315 520q23 16 53.5 76.5t34.5 93.5l-2 10l-12 2q-31 -23 -49.5 -76t-24.5 -106z" />
<glyph unicode="s" horiz-adv-x="540" d="M84 178q0 16 1 38t17.5 60.5t53.5 57.5l18 -17l145 150l-6 31l-2 37q0 84 58.5 173t138.5 89q31 0 50.5 -18.5t21.5 -53.5q0 -49 -54 -123l-116 -149q0 -16 34.5 -109.5t34.5 -134.5l13 -4q35 0 97 30.5t81 32.5l16 -24q0 -53 -139 -92q-70 -18 -80 -31q-66 -82 -84 -98 q-55 -49 -121 -50q-76 0 -129 62q-49 61 -49 143zM172 137q0 -39 33 -71q35 -29 78 -29q27 0 47 16.5t45 50.5l-2 9q-37 0 -61.5 5t-44 15t-40 28.5t-45.5 45.5l-10 -41v-29zM219 264q6 -29 37 -45q20 -20 47 -31l59 -8l39 2q0 78 -7 110t-46 103zM381 547h12l10 12 q25 14 69 75.5t44 86.5l-12 10q-47 0 -85 -65.5t-38 -118.5z" />
<glyph unicode="t" horiz-adv-x="464" d="M119 170q0 119 90 262q57 92 92 153.5t47 92.5l-213 -16l-2 12q0 27 20.5 35t31 10t36.5 2h35q125 0 184 53l88 92q47 45 125 97q96 57 144 57q12 0 24.5 -20.5t12.5 -41.5q0 -49 -31 -98l-60 -84l5 -10l137 4l106 6q43 0 69.5 -5t26.5 -34q0 -16 -10 -26l-106 2l-162 -6 l-123 -5l-348 -350l-92 -82q-51 -55 -51 -108q0 -51 16 -76t65 -25q47 0 113 43l186 132l13 -33q-72 -78 -152 -140q-112 -83 -176 -83h-2q-68 0 -103.5 58t-35.5 132zM242 362q33 2 170 146q102 104 166 184h-52l-55 -8q-29 -6 -121 -137q-16 -27 -53 -88q-26 -44 -55 -97z M514 748q113 0 161 41.5t91 154.5l-18 8q-29 0 -125.5 -85.5t-108.5 -118.5z" />
<glyph unicode="u" horiz-adv-x="673" d="M70 88q0 49 19.5 106.5t57.5 120.5q80 131 168 185l43 -27q-70 -80 -131 -172q-82 -127 -82 -192q0 -37 23 -37q45 0 149 116l269 322l53 -31l-125 -186q-72 -123 -82 -203q12 -25 41 -27q88 0 207 89l106 86l23 -35q-39 -45 -79 -82t-73 -60q-103 -79 -182 -79h-2 q-61 0 -90 49t-29 110q-61 -68 -92 -92q-63 -53 -115 -53q-33 0 -53 27.5t-24 64.5z" />
<glyph unicode="v" horiz-adv-x="581" d="M84 106q0 92 80 216q61 98 151 184l47 -35v-10q-61 -72 -126 -176q-82 -133 -82 -191q0 -41 45 -41q68 0 223 201q137 178 180 274q18 12 35 13q12 0 25 -19q-41 -127 -195 -325q-172 -228 -270 -228q-43 0 -80 43q-33 45 -33 94z" />
<glyph unicode="w" horiz-adv-x="854" d="M57 113q0 74 99.5 228.5t165.5 154.5q20 0 30 -31q-51 -63 -80.5 -102t-52.5 -72q-86 -127 -86 -191q0 -14 12 -26q104 31 224 186q154 201 194 234l53 -29v-10l-110 -164q-72 -115 -72 -176q0 -16 9.5 -35t25.5 -19q68 0 229 201q135 172 191 277h31q0 -121 -170 -336 q-178 -225 -293 -226q-49 0 -74 52q-20 55 -21 110l-14 -4q-14 -16 -51 -51t-45 -43q-68 -55 -119 -55q-33 0 -55 43q-20 47 -21 84z" />
<glyph unicode="x" horiz-adv-x="729" d="M-10 -82q0 29 123 137l161 127l91 64q59 43 59 151q-84 -23 -180 -108l-94 -88h-27l-12 18q35 61 157 166q133 115 187 115q25 0 40 -33t15 -72q0 -31 -8 -45l6 -8l137 96q103 64 146 64l14 -4q20 -14 22 -41l-235 -131q-150 -100 -150 -201q0 -31 18.5 -57.5t55.5 -26.5 q68 0 195 102q72 59 108 78l19 -37q-76 -84 -156 -141q-111 -80 -193 -80q-70 0 -100 64q-20 47 -20 129q-53 -25 -176 -131q-109 -98 -164 -158l-25 22q-12 14 -14 29z" />
<glyph unicode="y" horiz-adv-x="591" d="M-231 -645q0 106 125 252q35 41 130 130t267 238q45 39 86 115l72 131l-132 -139q-96 -92 -155 -92q-33 0 -55.5 36.5t-22.5 69.5q0 80 89 244t159 164q18 0 37 -21v-10q-57 -74 -96.5 -130t-57.5 -89q-47 -88 -47 -139q0 -25 20 -27q66 0 291 256l148 172h16l31 -33 l-195 -368l35 22l61 37l15 -35q-18 -43 -82 -88l-64 -43q-172 -332 -307 -528q-143 -211 -291 -211q-31 0 -54 26.5t-23 59.5zM-166 -651q0 -27 27 -29q61 0 153 119q70 86 158 242l111 198l-9 6l-260 -252q-180 -186 -180 -284z" />
<glyph unicode="z" horiz-adv-x="698" d="M-193 -674q0 96 134 244q98 106 278 252l244 186l-31 55q-18 25 -55 25l-121 -59q-20 -8 -52 -17.5t-71 -17.5q-20 10 -22 35q0 41 94 77l133 44q119 49 213 131l47 45q23 29 27 57q0 27 -17 45q-12 18 -39 21q-102 0 -229 -95q-170 -127 -203 -145l-22 27q45 68 211 169 t245 101q49 0 89 -32t40 -81q0 -70 -90 -147q-27 -23 -147 -107l35 -43l32 -43l95 51q33 0 34 -26l-2 -21l-65 -43q-41 -33 -55 -59q0 -184 -241 -445.5t-425 -261.5q-27 0 -45.5 23.5t-18.5 54.5zM-133 -668l12 -26q154 0 365 231q199 219 223 389q-78 -8 -339 -260 t-261 -334z" />
<glyph unicode="{" horiz-adv-x="940" d="M186 483v54q205 37 269 94q76 72 75 274q0 309 43 400q74 154 355 153h41v-45q-86 0 -157 -21.5t-120 -68.5q-41 -41 -59 -106q-6 -33 -10.5 -66t-4.5 -74l5 -98l4 -90q0 -156 -52 -227q-43 -61 -303 -150q225 -45 297 -154q51 -84 52 -290l-3 -64v-65v-21 q0 -162 90.5 -237.5t258.5 -75.5v-43q-309 0 -385 125q-49 80 -50 432q0 193 -77 268q-66 59 -269 96z" />
<glyph unicode="|" horiz-adv-x="309" d="M238 -328v1786h38v-1786h-38z" />
<glyph unicode="}" horiz-adv-x="940" d="M188 -397q221 0 295 104q51 78 52 287v125q0 193 81 276q72 72 271 115q-227 55 -299 154q-51 78 -51 290v123q0 188 -79 262t-270 74v45q299 0 381 -133q56 -90 56 -414q0 -203 73 -276q61 -57 271 -98v-56q-221 -31 -293 -133q-51 -78 -51 -280v-74l2 -80 q0 -197 -125 -279q-102 -68 -314 -67v35z" />
<glyph unicode="~" horiz-adv-x="585" d="M381 625q18 74 45 110q39 57 100 58q14 0 34 -3.5t46 -19.5q94 -49 115 -51q41 0 59 24l33 56h43q-25 -92 -61 -135q-39 -39 -82 -39q-37 0 -131 51q-43 25 -74 24q-31 0 -51 -20q-14 -18 -31 -55h-45z" />
<glyph horiz-adv-x="591" d="M-231 -645q0 106 125 252q35 41 130 130t267 238q45 39 86 115l72 131l-132 -139q-96 -92 -155 -92q-33 0 -55.5 36.5t-22.5 69.5q0 80 89 244t159 164q18 0 37 -21v-10q-57 -74 -96.5 -130t-57.5 -89q-47 -88 -47 -139q0 -25 20 -27q66 0 291 256l148 172h16l31 -33 l-195 -368l35 22l61 37l15 -35q-18 -43 -82 -88l-64 -43q-172 -332 -307 -528q-143 -211 -291 -211q-31 0 -54 26.5t-23 59.5zM-166 -651q0 -27 27 -29q61 0 153 119q70 86 158 242l111 198l-9 6l-260 -252q-180 -186 -180 -284zM395 627l86 110q128 156 185 156 q16 0 32 -19q14 -12 17 -34q0 -29 -119 -115l-139 -98h-62z" />
<glyph horiz-adv-x="788" d="M-250 -627q0 133 117 324q88 145 254 326l248 266q37 41 73 125l35 84l-149 -156q-92 -88 -172 -129q-18 2 -29 16l10 29l291 270l68 82q49 55 75 68l45 -25l-94 -239q55 43 96 63q55 31 109 31q31 0 55.5 -24.5t24.5 -55.5q0 -121 -121 -276.5t-237 -155.5q-23 0 -46 18 l-38 49l-134 -274q-106 -207 -202 -348q-121 -172 -201 -172q-35 0 -56.5 33.5t-21.5 70.5zM-190 -627q0 -12 8 -27.5t22 -17.5q53 0 170 187q41 68 91.5 164t103.5 208q82 178 123 279l-27 -19q-14 -20 -29.5 -39.5t-35.5 -41.5l-76 -82q-88 -104 -209 -295 q-141 -227 -141 -316zM406 135q0 -23 13 -48.5t34 -27.5q61 0 165.5 132.5t104.5 201.5l-2 23q-6 27 -29 28q-86 0 -186 -109.5t-100 -199.5z" />
<glyph unicode="&#xa2;" horiz-adv-x="448" d="M225 139q0 31 48.5 110t52.5 107l-35 88q-14 51 -15 78q0 119 94.5 188.5t217.5 69.5q14 10 61 91t72 83l12 -10l-102 -176l41 -35q27 -23 28 -41l-8 -30l-18 -5l-43 43q-16 12 -35 15l-100 -162q-80 -129 -80 -150q59 6 96 41q49 43 68 50l4 -19l-2 -20l-21 -25l-57 -63 q-37 -31 -127 -31q-33 -23 -90 -133l-41 -86q-18 12 -21 22zM338 489q0 -25 8 -47q10 -18 23 -26l184 311l-12 2q-68 0 -135.5 -83t-67.5 -157z" />
<glyph unicode="&#xa3;" horiz-adv-x="1798" d="M287 82q0 90 141 121q59 12 123 12h46t40 -4q33 0 102 -14q35 29 114 139t85 143q-45 0 -96 8.5t-54 34.5l13 25l61 -4l41 -2h27h24q16 0 26.5 5t43.5 62q80 137 125 201q80 109 158 164q100 66 225 65q164 0 240 -112q66 -96 65 -269q0 -39 -35 -39q-27 0 -26 44 q0 131 -60 217q-70 100 -196 100q-152 0 -275 -156q-49 -63 -166 -288h252q0 -10 -12 -27l-27 -23l-49 -4l-59 -2h-66l-63 2q-16 0 -39 -30l-70 -103l-127 -170l160 -51q203 -63 278 -64q111 0 152 78q31 55 31 178q0 29 37 29q25 0 37 -30.5t12 -63.5q0 -104 -82 -174 t-189 -70q-39 0 -89 8.5t-107 26.5q-262 80 -297 80q-102 -70 -191 -102q-27 -8 -60.5 -14.5t-66.5 -6.5q-55 0 -96 14q-61 23 -61 66zM348 74l43 -21l60 -4q35 0 48 3t40 14q57 20 131 79q-88 20 -148 21q-41 0 -59.5 -2t-48.5 -14q-66 -25 -66 -76z" />
<glyph unicode="&#xa8;" horiz-adv-x="655" d="M430 696q0 41 24.5 66.5t61.5 25.5q29 0 50.5 -24t25.5 -59q0 -33 -25.5 -56.5t-60.5 -23.5q-20 0 -47 24.5t-29 46.5zM715 700q0 39 24.5 65t59.5 26q31 0 55.5 -24.5t24.5 -55.5q0 -33 -24 -59.5t-58 -26.5q-33 0 -57.5 22.5t-24.5 52.5z" />
<glyph unicode="&#xa9;" horiz-adv-x="544" d="M0 139l334 320l-8 39v30q0 82 58 169t138 87q29 0 52.5 -19.5t23.5 -47.5q0 -68 -96 -182l-84 -93q18 -47 26 -65q20 -53 31 -82q14 -57 14 -92l11 -10q35 0 86 22q29 10 84 43l16 -4v-33l-51 -45l-49 -29l-82 -20q-29 -6 -41 -39l-84 -78q-55 -39 -107 -39 q-78 0 -120 49q-39 51 -39 132q-14 0 -40 -19.5t-38 -19.5q-23 0 -35 26zM172 147q0 -45 33 -79q37 -33 80 -33q37 0 63.5 17.5t34.5 51.5q-43 6 -64.5 11.5t-44.5 17.5q-37 18 -84 72q-8 -6 -14 -25zM225 262q6 -37 56.5 -62.5t93.5 -25.5l39 2l4 31q0 35 -19.5 104.5 t-40.5 75.5zM393 537l10 -2l56 57q49 55 76 115l-11 16q-55 0 -93 -62.5t-38 -123.5z" />
<glyph unicode="&#xad;" horiz-adv-x="833" d="M285 334q141 37 290 37q94 0 168 -15l13 -18q12 -18 12 -35l-2 -16l-33 -2l-51 2q-33 0 -51 4l-168 -2q-20 0 -68 -10l-41 -5q-25 0 -42 16.5t-27 43.5z" />
<glyph unicode="&#xae;" horiz-adv-x="475" d="M35 47q0 29 126 255t148 239h33l10 -15q-12 -61 -47 -127q59 66 109 99q82 59 131 59q29 0 48 -24.5t23 -57.5q0 -39 -25.5 -82t-66.5 -43q-23 0 -30 15l34 47q19 26 23 53q-12 18 -27 18h-26q-90 -61 -179 -157l-247 -320q-37 0 -37 41z" />
<glyph unicode="&#xb4;" horiz-adv-x="598" d="M471 627l164 196q69 70 106 70q14 0 27 -10q25 -18 25 -43q0 -29 -119 -115l-142 -98h-61z" />
<glyph unicode="&#xb5;" horiz-adv-x="1140" d="M127 262q55 76 133 152q106 102 162 102q29 0 50.5 -24.5t25.5 -59.5q0 -33 -4 -43q0 -12 -15 -47q57 70 101 109q74 63 129 63q31 0 52 -27.5t21 -62.5q0 -27 -4 -39l-24 -57q35 39 62.5 66.5t60.5 54.5q41 33 77.5 49t73.5 16q27 0 51 -25q18 -23 23 -55 q0 -59 -80 -168.5t-80 -148.5q0 -49 55 -49q57 0 121 41l185 133q20 -6 20 -27q0 -12 -14 -25q-29 -55 -145.5 -130.5t-176.5 -75.5q-51 0 -93 35.5t-42 84.5q0 61 88 174t88 154l-14 8q-86 -25 -189 -121q-41 -39 -268 -311l-53 17q4 25 93 167t110 224l-17 20 q-70 -31 -172 -143l-164 -189q-78 -92 -104 -96q-23 0 -31 27l4 22q131 186 154 226q53 90 53 127q0 20 -18 32q-53 0 -147.5 -110.5t-121.5 -110.5z" />
<glyph unicode="&#xb7;" horiz-adv-x="536" d="M229 -387l27 51l80 -22l82 -9q61 0 100 21q51 29 51 86q0 39 -37.5 64.5t-80.5 25.5q-33 0 -52 -4l-55 -19l-31 25l123 168h72l-92 -119l71 6q61 0 116.5 -36.5t55.5 -100.5q0 -86 -71 -137q-61 -43 -156 -43q-45 0 -98 12q-49 8 -105 31z" />
<glyph unicode="&#xc0;" horiz-adv-x="1837" d="M188 317q0 16 18.5 37t39.5 23q39 -68 70.5 -115t50.5 -63q78 -80 192 -80q141 0 363 190q51 45 133 125t174 180l-129 -8l-4 17q0 66 137 84l102 8q84 102 236 254q182 182 336 299q186 143 272 143q33 0 59.5 -24.5t30.5 -59.5q0 -92 -145 -313l-213 -303l6 -11l39 -20 l10 -25l-8 -24l-51 -2l-60 -2q-78 -100 -141 -217q-80 -147 -80 -240q0 -23 12.5 -49.5t42.5 -26.5q59 0 125 37l176 141q18 0 23 -18q0 -51 -138 -146.5t-196 -95.5q-57 0 -87 53.5t-30 112.5q0 129 88 291l99 160l-242 2l-127 -2l-379 -369q-260 -219 -456 -219 q-94 0 -218 90q-131 96 -131 186zM1458 715l58 -4h57h29h24h74l74 2h20l227 301q154 221 172 315q-12 18 -34 19q-39 0 -156 -97q-94 -78 -150 -133l-352 -356zM1976 1722q0 20 17.5 35t42.5 17q37 0 137 -113l125 -154h-62l-147 101q-113 82 -113 114z" />
<glyph unicode="&#xc1;" horiz-adv-x="1837" d="M188 317q0 16 18.5 37t39.5 23q39 -68 70.5 -115t50.5 -63q78 -80 192 -80q141 0 363 190q51 45 133 125t174 180l-129 -8l-4 17q0 66 137 84l102 8q84 102 236 254q182 182 336 299q186 143 272 143q33 0 59.5 -24.5t30.5 -59.5q0 -92 -145 -313l-213 -303l6 -11l39 -20 l10 -25l-8 -24l-51 -2l-60 -2q-78 -100 -141 -217q-80 -147 -80 -240q0 -23 12.5 -49.5t42.5 -26.5q59 0 125 37l176 141q18 0 23 -18q0 -51 -138 -146.5t-196 -95.5q-57 0 -87 53.5t-30 112.5q0 129 88 291l99 160l-242 2l-127 -2l-379 -369q-260 -219 -456 -219 q-94 0 -218 90q-131 96 -131 186zM1458 715l58 -4h57h29h24h74l74 2h20l227 301q154 221 172 315q-12 18 -34 19q-39 0 -156 -97q-94 -78 -150 -133l-352 -356zM2054 1507l127 156q98 111 143 111q14 0 29 -9q25 -16 25 -45t-119 -114l-141 -99h-64z" />
<glyph unicode="&#xc2;" horiz-adv-x="1837" d="M188 317q0 16 18.5 37t39.5 23q39 -68 70.5 -115t50.5 -63q78 -80 192 -80q141 0 363 190q51 45 133 125t174 180l-129 -8l-4 17q0 66 137 84l102 8q84 102 236 254q182 182 336 299q186 143 272 143q33 0 59.5 -24.5t30.5 -59.5q0 -92 -145 -313l-213 -303l6 -11l39 -20 l10 -25l-8 -24l-51 -2l-60 -2q-78 -100 -141 -217q-80 -147 -80 -240q0 -23 12.5 -49.5t42.5 -26.5q59 0 125 37l176 141q18 0 23 -18q0 -51 -138 -146.5t-196 -95.5q-57 0 -87 53.5t-30 112.5q0 129 88 291l99 160l-242 2l-127 -2l-379 -369q-260 -219 -456 -219 q-94 0 -218 90q-131 96 -131 186zM1458 715l58 -4h57h29h24h74l74 2h20l227 301q154 221 172 315q-12 18 -34 19q-39 0 -156 -97q-94 -78 -150 -133l-352 -356zM1952 1507l237 258h103l102 -258h-57l-121 170l-207 -170h-57z" />
<glyph unicode="&#xc3;" horiz-adv-x="1837" d="M188 317q0 16 18.5 37t39.5 23q39 -68 70.5 -115t50.5 -63q78 -80 192 -80q141 0 363 190q51 45 133 125t174 180l-129 -8l-4 17q0 66 137 84l102 8q84 102 236 254q182 182 336 299q186 143 272 143q33 0 59.5 -24.5t30.5 -59.5q0 -92 -145 -313l-213 -303l6 -11l39 -20 l10 -25l-8 -24l-51 -2l-60 -2q-78 -100 -141 -217q-80 -147 -80 -240q0 -23 12.5 -49.5t42.5 -26.5q59 0 125 37l176 141q18 0 23 -18q0 -51 -138 -146.5t-196 -95.5q-57 0 -87 53.5t-30 112.5q0 129 88 291l99 160l-242 2l-127 -2l-379 -369q-260 -219 -456 -219 q-94 0 -218 90q-131 96 -131 186zM1458 715l58 -4h57h29h24h74l74 2h20l227 301q154 221 172 315q-12 18 -34 19q-39 0 -156 -97q-94 -78 -150 -133l-352 -356zM1946 1505q18 92 57 131t86 39q45 0 105.5 -38t93.5 -38q43 0 59 23q16 35 33 57h41q-14 -68 -43 -110 q-41 -61 -101 -62q-37 0 -133 49q-43 25 -71 25q-29 0 -52 -18q-14 -16 -32 -58h-43z" />
<glyph unicode="&#xc4;" horiz-adv-x="1837" d="M188 317q0 16 18.5 37t39.5 23q39 -68 70.5 -115t50.5 -63q78 -80 192 -80q141 0 363 190q51 45 133 125t174 180l-129 -8l-4 17q0 66 137 84l102 8q84 102 236 254q182 182 336 299q186 143 272 143q33 0 59.5 -24.5t30.5 -59.5q0 -92 -145 -313l-213 -303l6 -11l39 -20 l10 -25l-8 -24l-51 -2l-60 -2q-78 -100 -141 -217q-80 -147 -80 -240q0 -23 12.5 -49.5t42.5 -26.5q59 0 125 37l176 141q18 0 23 -18q0 -51 -138 -146.5t-196 -95.5q-57 0 -87 53.5t-30 112.5q0 129 88 291l99 160l-242 2l-127 -2l-379 -369q-260 -219 -456 -219 q-94 0 -218 90q-131 96 -131 186zM1458 715l58 -4h57h29h24h74l74 2h20l227 301q154 221 172 315q-12 18 -34 19q-39 0 -156 -97q-94 -78 -150 -133l-352 -356zM1937 1587q0 33 24 57.5t56 26.5q29 0 54.5 -22.5t29.5 -57.5q0 -31 -22.5 -58.5t-57.5 -27.5q-31 0 -59 23 q-25 25 -25 59zM2222 1583q0 39 24.5 64.5t59.5 25.5q31 0 55.5 -24.5t24.5 -57.5q0 -35 -22.5 -59.5t-59.5 -24.5q-31 0 -56.5 19.5t-25.5 56.5z" />
<glyph unicode="&#xc5;" horiz-adv-x="1837" d="M188 317q0 16 18.5 37t39.5 23q39 -68 70.5 -115t50.5 -63q78 -80 192 -80q141 0 363 190q51 45 133 125t174 180l-129 -8l-4 17q0 66 137 84l102 8q84 102 236 254q182 182 336 299q186 143 272 143q33 0 59.5 -24.5t30.5 -59.5q0 -92 -145 -313l-213 -303l6 -11l39 -20 l10 -25l-8 -24l-51 -2l-60 -2q-78 -100 -141 -217q-80 -147 -80 -240q0 -23 12.5 -49.5t42.5 -26.5q59 0 125 37l176 141q18 0 23 -18q0 -51 -138 -146.5t-196 -95.5q-57 0 -87 53.5t-30 112.5q0 129 88 291l99 160l-242 2l-127 -2l-379 -369q-260 -219 -456 -219 q-94 0 -218 90q-131 96 -131 186zM1458 715l58 -4h57h29h24h74l74 2h20l227 301q154 221 172 315q-12 18 -34 19q-39 0 -156 -97q-94 -78 -150 -133l-352 -356zM2044 1645q0 59 38 100t101 41q57 0 98 -42t41 -99q0 -59 -38.5 -97.5t-102.5 -38.5q-55 0 -98 37 q-39 39 -39 99zM2101 1645q0 -29 24.5 -55.5t57.5 -26.5q29 0 55.5 24.5t26.5 57.5q0 35 -22.5 59.5t-59.5 24.5q-29 0 -55.5 -24.5t-26.5 -59.5z" />
<glyph unicode="&#xc6;" horiz-adv-x="2496" d="M188 317q0 16 18.5 37t39.5 23q39 -68 70.5 -115t50.5 -63q78 -80 192 -80q141 0 363 190q51 45 133 125t174 180l-129 -8l-4 17q0 66 137 84l102 8q66 82 234 250q94 92 178 168q92 82 158 133q188 145 274 145q33 0 61.5 -25.5t28.5 -62.5l-4 -29q0 -14 -10 -30 q119 72 233 112q135 47 256 47q66 0 107 -8t80 -33q57 -33 57 -88q0 -86 -119 -173t-211 -87q-14 0 -30 13q-12 14 -19 28q49 18 91 38t87 46q127 74 127 129q0 29 -37.5 44.5t-113.5 15.5q-190 0 -383 -105.5t-293 -269.5l-27 -53l-10 -56l4 -18q18 6 51 12t54 10l114 6 q100 0 160 -22q96 -35 96 -111q0 -74 -75 -112q-59 -31 -144 -31q-37 0 -66.5 4t-72.5 16q-72 23 -117 66l-31 33l-30 28q-143 -59 -246 -186q-113 -141 -113 -285q0 -133 75 -199.5t210 -66.5q166 0 334 88q57 31 293 189l18 -21q-154 -172 -283 -252q-168 -102 -360 -102 q-150 0 -260 96q-121 102 -121 250q0 94 44 197.5t112 175.5l-215 2l-109 -2l-379 -369q-260 -219 -456 -219q-94 0 -218 90q-131 96 -131 186zM1458 715l162 -2l166 -2l94 61l94 53q0 102 41 187.5t119 156.5l37 84l22 76q-12 18 -32 19q-39 0 -158 -95q-80 -66 -150 -135 l-352 -356zM2077 772q98 -104 233 -104q59 0 88 10q55 18 56 61q-14 35 -70 54q-27 8 -50.5 12t-56.5 4h-71q-35 -6 -76 -10t-53 -27z" />
<glyph unicode="&#xc7;" horiz-adv-x="1167" d="M229 401q0 344 351.5 679t701.5 335q53 0 94 -10t84 -37q92 -55 92 -151q0 -135 -182 -314.5t-317 -179.5q-35 0 -64 31q-25 31 -24 71q0 76 67.5 161t145.5 85q12 0 20 -14l12 -27q-86 -55 -106 -76q-57 -53 -57 -112q0 -25 36 -25q106 0 253 155.5t147 264.5 q0 66 -53.5 93.5t-124.5 27.5q-317 0 -651.5 -321.5t-334.5 -641.5q0 -145 68 -227t213 -82q133 0 270 72q111 55 234 157l22 -18q-68 -129 -211 -214t-288 -85l-86 -117l63 6q84 0 131 -40t47 -123q0 -66 -80 -115q-72 -39 -145 -39q-45 0 -95 10t-110 33l29 51 q78 -31 162 -31q66 0 102 23q45 29 45 90q0 33 -34.5 58.5t-69.5 25.5q-59 0 -119 -23l-31 25l123 166q-147 0 -244 127q-86 117 -86 276z" />
<glyph unicode="&#xc8;" horiz-adv-x="1067" d="M211 256q0 197 131 346q98 111 303 223q0 250 266 435q242 164 506 163q84 0 150 -24q92 -35 92 -105q0 -86 -118 -173t-210 -87q-43 0 -51 41q49 18 91 38t87 46q127 74 127 127q0 39 -44 51.5t-103 12.5q-190 0 -388 -105.5t-294 -271.5l-23 -55q-12 -31 -12 -54l4 -18 q18 6 51 12t53 10l115 6q96 0 158 -22q96 -35 96 -111q0 -72 -74 -112q-59 -31 -143 -31q-37 0 -66.5 4t-72.5 16q-72 23 -117 66l-61 61q-143 -59 -246 -186q-113 -141 -113 -285q0 -133 75 -199.5t210 -66.5q166 0 334 88q57 31 293 189l18 -21q-72 -82 -142.5 -144.5 t-140.5 -105.5q-168 -102 -362 -102q-147 0 -263 98.5t-116 245.5zM748 772q98 -104 235 -104h29q18 0 35 4q78 16 77 67q-14 35 -72.5 52.5t-105.5 17.5q-39 0 -73.5 -2t-76.5 -10.5t-48 -24.5zM1225 1722q0 23 15 36.5t42 15.5q47 0 176 -156l88 -111h-61l-148 101 q-113 82 -112 114z" />
<glyph unicode="&#xc9;" horiz-adv-x="1067" d="M211 256q0 197 131 346q98 111 303 223q0 250 266 435q242 164 506 163q84 0 150 -24q92 -35 92 -105q0 -86 -118 -173t-210 -87q-43 0 -51 41q49 18 91 38t87 46q127 74 127 127q0 39 -44 51.5t-103 12.5q-190 0 -388 -105.5t-294 -271.5l-23 -55q-12 -31 -12 -54l4 -18 q18 6 51 12t53 10l115 6q96 0 158 -22q96 -35 96 -111q0 -72 -74 -112q-59 -31 -143 -31q-37 0 -66.5 4t-72.5 16q-72 23 -117 66l-61 61q-143 -59 -246 -186q-113 -141 -113 -285q0 -133 75 -199.5t210 -66.5q166 0 334 88q57 31 293 189l18 -21q-72 -82 -142.5 -144.5 t-140.5 -105.5q-168 -102 -362 -102q-147 0 -263 98.5t-116 245.5zM748 772q98 -104 235 -104h29q18 0 35 4q78 16 77 67q-14 35 -72.5 52.5t-105.5 17.5q-39 0 -73.5 -2t-76.5 -10.5t-48 -24.5zM1360 1507l125 156q98 111 145 111q12 0 27 -9q25 -18 24 -45 q0 -29 -118 -114l-142 -99h-61z" />
<glyph unicode="&#xca;" horiz-adv-x="1067" d="M211 256q0 197 131 346q98 111 303 223q0 250 266 435q242 164 506 163q84 0 150 -24q92 -35 92 -105q0 -86 -118 -173t-210 -87q-43 0 -51 41q49 18 91 38t87 46q127 74 127 127q0 39 -44 51.5t-103 12.5q-190 0 -388 -105.5t-294 -271.5l-23 -55q-12 -31 -12 -54l4 -18 q18 6 51 12t53 10l115 6q96 0 158 -22q96 -35 96 -111q0 -72 -74 -112q-59 -31 -143 -31q-37 0 -66.5 4t-72.5 16q-72 23 -117 66l-61 61q-143 -59 -246 -186q-113 -141 -113 -285q0 -133 75 -199.5t210 -66.5q166 0 334 88q57 31 293 189l18 -21q-72 -82 -142.5 -144.5 t-140.5 -105.5q-168 -102 -362 -102q-147 0 -263 98.5t-116 245.5zM748 772q98 -104 235 -104h29q18 0 35 4q78 16 77 67q-14 35 -72.5 52.5t-105.5 17.5q-39 0 -73.5 -2t-76.5 -10.5t-48 -24.5zM1159 1507l238 258h102l103 -258h-56l-121 170l-208 -170h-58z" />
<glyph unicode="&#xcb;" horiz-adv-x="1067" d="M211 256q0 197 131 346q98 111 303 223q0 250 266 435q242 164 506 163q84 0 150 -24q92 -35 92 -105q0 -86 -118 -173t-210 -87q-43 0 -51 41q49 18 91 38t87 46q127 74 127 127q0 39 -44 51.5t-103 12.5q-190 0 -388 -105.5t-294 -271.5l-23 -55q-12 -31 -12 -54l4 -18 q18 6 51 12t53 10l115 6q96 0 158 -22q96 -35 96 -111q0 -72 -74 -112q-59 -31 -143 -31q-37 0 -66.5 4t-72.5 16q-72 23 -117 66l-61 61q-143 -59 -246 -186q-113 -141 -113 -285q0 -133 75 -199.5t210 -66.5q166 0 334 88q57 31 293 189l18 -21q-72 -82 -142.5 -144.5 t-140.5 -105.5q-168 -102 -362 -102q-147 0 -263 98.5t-116 245.5zM748 772q98 -104 235 -104h29q18 0 35 4q78 16 77 67q-14 35 -72.5 52.5t-105.5 17.5q-39 0 -73.5 -2t-76.5 -10.5t-48 -24.5zM1202 1587q0 37 25.5 60.5t62.5 23.5q27 0 51.5 -23.5t24.5 -56.5 q0 -37 -23 -61q-18 -25 -55 -25t-61.5 23.5t-24.5 58.5zM1487 1583q0 39 24.5 64.5t61.5 25.5q25 0 51.5 -24.5t26.5 -55.5t-22.5 -58.5t-57.5 -27.5q-31 0 -60 21q-25 23 -24 55z" />
<glyph unicode="&#xcc;" horiz-adv-x="991" d="M229 350q0 63 18.5 104.5t71.5 73.5l13 -8q-8 -35 -14.5 -73.5t-6.5 -71.5q0 -90 43 -180q53 -106 140 -107q66 0 130 55.5t164 214.5l480 768l129 172q-322 -137 -361 -161q-225 -129 -225 -291q0 -121 78 -213l-31 -21l-18 -2q-45 0 -76 92q-29 96 -29 152 q0 213 266 354l449 172q18 6 43 19.5t57 34.5q125 78 179 77l10 -4l8 -6l4 -10v-12q0 -16 -70 -49l-184 -87q-39 -31 -92 -124l-45 -84l-438 -740q-88 -152 -185 -254q-139 -149 -258 -149q-115 0 -188 125q-61 104 -62 233zM1360 1800q0 23 16.5 36t40.5 17q37 0 137 -112 l127 -156h-63l-145 98q-113 82 -113 117z" />
<glyph unicode="&#xcd;" horiz-adv-x="991" d="M229 350q0 63 18.5 104.5t71.5 73.5l13 -8q-8 -35 -14.5 -73.5t-6.5 -71.5q0 -90 43 -180q53 -106 140 -107q66 0 130 55.5t164 214.5l480 768l129 172q-322 -137 -361 -161q-225 -129 -225 -291q0 -121 78 -213l-31 -21l-18 -2q-45 0 -76 92q-29 96 -29 152 q0 213 266 354l449 172q18 6 43 19.5t57 34.5q125 78 179 77l10 -4l8 -6l4 -10v-12q0 -16 -70 -49l-184 -87q-39 -31 -92 -124l-45 -84l-438 -740q-88 -152 -185 -254q-139 -149 -258 -149q-115 0 -188 125q-61 104 -62 233zM1438 1585l127 156q100 112 143 112 q16 0 31.5 -16t19.5 -39q0 -29 -119 -115l-141 -98h-61z" />
<glyph unicode="&#xce;" horiz-adv-x="991" d="M229 350q0 63 18.5 104.5t71.5 73.5l13 -8q-8 -35 -14.5 -73.5t-6.5 -71.5q0 -90 43 -180q53 -106 140 -107q66 0 130 55.5t164 214.5l480 768l129 172q-322 -137 -361 -161q-225 -129 -225 -291q0 -121 78 -213l-31 -21l-18 -2q-45 0 -76 92q-29 96 -29 152 q0 213 266 354l449 172q18 6 43 19.5t57 34.5q125 78 179 77l10 -4l8 -6l4 -10v-12q0 -16 -70 -49l-184 -87q-39 -31 -92 -124l-45 -84l-438 -740q-88 -152 -185 -254q-139 -149 -258 -149q-115 0 -188 125q-61 104 -62 233zM1274 1585l239 258h103l100 -258h-53l-121 170 l-209 -170h-59z" />
<glyph unicode="&#xcf;" horiz-adv-x="991" d="M229 350q0 63 18.5 104.5t71.5 73.5l13 -8q-8 -35 -14.5 -73.5t-6.5 -71.5q0 -90 43 -180q53 -106 140 -107q66 0 130 55.5t164 214.5l480 768l129 172q-322 -137 -361 -161q-225 -129 -225 -291q0 -121 78 -213l-31 -21l-18 -2q-45 0 -76 92q-29 96 -29 152 q0 213 266 354l449 172q18 6 43 19.5t57 34.5q125 78 179 77l10 -4l8 -6l4 -10v-12q0 -16 -70 -49l-184 -87q-39 -31 -92 -124l-45 -84l-438 -740q-88 -152 -185 -254q-139 -149 -258 -149q-115 0 -188 125q-61 104 -62 233zM1262 1661q0 39 22.5 63.5t61.5 24.5 q25 0 51 -24.5t26 -55.5q0 -39 -22.5 -62.5t-61.5 -23.5q-25 0 -51 24.5t-26 53.5zM1546 1661q0 39 24.5 64.5t61.5 25.5q31 0 56 -25q18 -22 22 -57q0 -37 -26.5 -60.5t-61.5 -23.5q-31 0 -51.5 21.5t-24.5 54.5z" />
<glyph unicode="&#xd1;" horiz-adv-x="1720" d="M262 207q0 29 10 47q10 8 27 8h10q12 -45 24.5 -78.5t28.5 -64.5q29 -55 82 -56q59 0 123 70q23 23 90 121l611 881q41 57 106 133q86 96 127 96q25 0 40 -22.5t15 -75.5v-31q-6 -25 -8 -39l-14 -78l-143 -897l-5 -45v-29q0 -12 17 -20q27 18 205 315l327 572l215 381 q39 -12 39 -62q0 -27 -131 -268q-86 -160 -258 -457l-182 -317q-53 -92 -115 -174q-96 -127 -143 -127q-37 0 -49 45l-8 112q0 162 40 353l87 397q43 203 43 350l-13 8q-18 0 -26 -22q-25 -25 -39 -47l-613 -907q-98 -147 -137 -191q-100 -106 -199 -106q-78 0 -133 69 q-51 74 -51 156zM1655 1505q18 74 45 113q39 57 100 57q37 0 125 -51q43 -25 72 -25q41 0 59 21l31 59h45q-16 -70 -45 -110q-41 -61 -100 -62q-39 0 -82 23q-98 47 -123 51q-31 0 -51 -20q-14 -18 -31 -56h-45z" />
<glyph unicode="&#xd2;" horiz-adv-x="1277" d="M229 305q0 231 177 526q188 313 395 375l14 -35q-197 -184 -330 -383q-168 -256 -168 -464q0 -109 60 -195q68 -98 174 -98q174 0 399 192q205 174 357 428q80 129 117.5 232.5t37.5 193.5q0 98 -59.5 157.5t-157.5 59.5q-115 0 -274 -127q-131 -102 -221 -223l-64 -88 l-68 -84l-28 29q61 195 264 377q217 193 412 192q121 0 197.5 -74.5t76.5 -199.5q0 -201 -155.5 -474.5t-374.5 -461.5q-240 -209 -441 -209q-139 0 -239.5 104.5t-100.5 249.5zM1128 1722q0 23 15.5 36.5t42.5 15.5q43 0 176 -158l88 -109h-61l-148 101q-113 82 -113 114z " />
<glyph unicode="&#xd3;" horiz-adv-x="1277" d="M229 305q0 231 177 526q188 313 395 375l14 -35q-197 -184 -330 -383q-168 -256 -168 -464q0 -109 60 -195q68 -98 174 -98q174 0 399 192q205 174 357 428q80 129 117.5 232.5t37.5 193.5q0 98 -59.5 157.5t-157.5 59.5q-115 0 -274 -127q-131 -102 -221 -223l-64 -88 l-68 -84l-28 29q61 195 264 377q217 193 412 192q121 0 197.5 -74.5t76.5 -199.5q0 -201 -155.5 -474.5t-374.5 -461.5q-240 -209 -441 -209q-139 0 -239.5 104.5t-100.5 249.5zM1186 1507l164 197q69 70 106 70q12 0 27 -9q25 -18 24 -45q0 -29 -118 -114l-142 -99h-61z " />
<glyph unicode="&#xd4;" horiz-adv-x="1277" d="M229 305q0 231 177 526q188 313 395 375l14 -35q-197 -184 -330 -383q-168 -256 -168 -464q0 -109 60 -195q68 -98 174 -98q174 0 399 192q205 174 357 428q80 129 117.5 232.5t37.5 193.5q0 98 -59.5 157.5t-157.5 59.5q-115 0 -274 -127q-131 -102 -221 -223l-64 -88 l-68 -84l-28 29q61 195 264 377q217 193 412 192q121 0 197.5 -74.5t76.5 -199.5q0 -201 -155.5 -474.5t-374.5 -461.5q-240 -209 -441 -209q-139 0 -239.5 104.5t-100.5 249.5zM1063 1507l237 258h103l100 -258h-53l-121 170l-209 -170h-57z" />
<glyph unicode="&#xd5;" horiz-adv-x="1277" d="M229 305q0 231 177 526q188 313 395 375l14 -35q-197 -184 -330 -383q-168 -256 -168 -464q0 -109 60 -195q68 -98 174 -98q174 0 399 192q205 174 357 428q80 129 117.5 232.5t37.5 193.5q0 98 -59.5 157.5t-157.5 59.5q-115 0 -274 -127q-131 -102 -221 -223l-64 -88 l-68 -84l-28 29q61 195 264 377q217 193 412 192q121 0 197.5 -74.5t76.5 -199.5q0 -201 -155.5 -474.5t-374.5 -461.5q-240 -209 -441 -209q-139 0 -239.5 104.5t-100.5 249.5zM1057 1505q23 94 60.5 132t82.5 38q37 0 125 -51q43 -25 72 -25q39 0 59 21l33 59h43 q-14 -68 -43 -110q-41 -61 -100 -62q-37 0 -134 49q-43 25 -71 25q-29 0 -51 -18q-14 -16 -33 -58h-43z" />
<glyph unicode="&#xd6;" horiz-adv-x="1277" d="M229 305q0 231 177 526q188 313 395 375l14 -35q-197 -184 -330 -383q-168 -256 -168 -464q0 -109 60 -195q68 -98 174 -98q174 0 399 192q205 174 357 428q80 129 117.5 232.5t37.5 193.5q0 98 -59.5 157.5t-157.5 59.5q-115 0 -274 -127q-131 -102 -221 -223l-64 -88 l-68 -84l-28 29q61 195 264 377q217 193 412 192q121 0 197.5 -74.5t76.5 -199.5q0 -201 -155.5 -474.5t-374.5 -461.5q-240 -209 -441 -209q-139 0 -239.5 104.5t-100.5 249.5zM1049 1579q0 35 18 66q8 10 23.5 18t33.5 8q39 0 62.5 -22.5t23.5 -61.5q0 -35 -20.5 -58.5 t-56.5 -23.5q-29 0 -58 23q-23 25 -26 51zM1333 1583q0 39 24.5 64.5t59.5 25.5q31 0 55.5 -24.5t24.5 -57.5q0 -35 -22.5 -59.5t-59.5 -24.5q-31 0 -56.5 21.5t-25.5 54.5z" />
<glyph unicode="&#xd8;" horiz-adv-x="1277" d="M227 -49l97 108q-93 105 -93 244q0 229 177 526q186 315 393 377l14 -35q-197 -184 -330 -383q-168 -256 -168 -464q0 -111 64 -201l991 1134q-61 37 -129 37q-113 0 -272 -127q-125 -100 -221 -223l-132 -172l-28 29q61 195 264 377q217 193 412 192q41 0 88 -12 q43 -8 78 -33l38 45h72l-72 -80q29 -35 52 -88q8 -23 14 -50.5t6 -53.5q0 -197 -153.5 -468.5t-378.5 -467.5q-240 -209 -441 -209q-125 0 -204 72l-64 -74h-74zM416 86q25 -20 63 -41q27 -10 40.5 -13t31.5 -3q176 0 399 192q203 176 357.5 428t154.5 428q0 84 -49 144z " />
<glyph unicode="&#xd9;" horiz-adv-x="1652" d="M520 254q0 182 185 438q111 156 342 400q186 199 186 241q0 31 -33 31q-51 0 -184 -90q-109 -74 -174 -133l-41 10q31 86 180 183.5t246 97.5q14 0 27.5 -3.5t40 -23t26.5 -49.5q0 -80 -184 -299l-342 -402q-184 -246 -185 -405q0 -53 36 -95t87 -42q160 0 467 325 q164 170 506 611q258 330 301 340l39 -35v-17l-266 -329q-178 -221 -267 -379q-121 -217 -120 -393q0 -70 14 -111q23 -66 80 -66q68 0 151 64q39 31 127 119l29 -35q-63 -98 -139 -154q-94 -72 -191 -71q-68 0 -116 79q-39 72 -39 144q0 47 4 80.5t18 81.5q23 80 62 172 l-72 -78l-70 -84q-98 -113 -245 -227q-184 -141 -287 -142q-66 0 -132.5 87t-66.5 159zM1475 1722q0 20 17 35t42 17q47 0 176 -156l86 -111h-61l-148 101q-113 82 -112 114z" />
<glyph unicode="&#xda;" horiz-adv-x="1652" d="M520 254q0 182 185 438q111 156 342 400q186 199 186 241q0 31 -33 31q-51 0 -184 -90q-109 -74 -174 -133l-41 10q31 86 180 183.5t246 97.5q14 0 27.5 -3.5t40 -23t26.5 -49.5q0 -80 -184 -299l-342 -402q-184 -246 -185 -405q0 -53 36 -95t87 -42q160 0 467 325 q164 170 506 611q258 330 301 340l39 -35v-17l-266 -329q-178 -221 -267 -379q-121 -217 -120 -393q0 -70 14 -111q23 -66 80 -66q68 0 151 64q39 31 127 119l29 -35q-63 -98 -139 -154q-94 -72 -191 -71q-68 0 -116 79q-39 72 -39 144q0 47 4 80.5t18 81.5q23 80 62 172 l-72 -78l-70 -84q-98 -113 -245 -227q-184 -141 -287 -142q-66 0 -132.5 87t-66.5 159zM1477 1507l86 111q127 156 184 156q18 0 35 -17q10 -14 14 -37q0 -29 -110 -112l-148 -101h-61z" />
<glyph unicode="&#xdb;" horiz-adv-x="1652" d="M520 254q0 182 185 438q111 156 342 400q186 199 186 241q0 31 -33 31q-51 0 -184 -90q-109 -74 -174 -133l-41 10q31 86 180 183.5t246 97.5q14 0 27.5 -3.5t40 -23t26.5 -49.5q0 -80 -184 -299l-342 -402q-184 -246 -185 -405q0 -53 36 -95t87 -42q160 0 467 325 q164 170 506 611q258 330 301 340l39 -35v-17l-266 -329q-178 -221 -267 -379q-121 -217 -120 -393q0 -70 14 -111q23 -66 80 -66q68 0 151 64q39 31 127 119l29 -35q-63 -98 -139 -154q-94 -72 -191 -71q-68 0 -116 79q-39 72 -39 144q0 47 4 80.5t18 81.5q23 80 62 172 l-72 -78l-70 -84q-98 -113 -245 -227q-184 -141 -287 -142q-66 0 -132.5 87t-66.5 159zM1409 1507l240 258h100l104 -258h-57l-119 170l-209 -170h-59z" />
<glyph unicode="&#xdc;" horiz-adv-x="1652" d="M520 254q0 182 185 438q111 156 342 400q186 199 186 241q0 31 -33 31q-51 0 -184 -90q-109 -74 -174 -133l-41 10q31 86 180 183.5t246 97.5q14 0 27.5 -3.5t40 -23t26.5 -49.5q0 -80 -184 -299l-342 -402q-184 -246 -185 -405q0 -53 36 -95t87 -42q160 0 467 325 q164 170 506 611q258 330 301 340l39 -35v-17l-266 -329q-178 -221 -267 -379q-121 -217 -120 -393q0 -70 14 -111q23 -66 80 -66q68 0 151 64q39 31 127 119l29 -35q-63 -98 -139 -154q-94 -72 -191 -71q-68 0 -116 79q-39 72 -39 144q0 47 4 80.5t18 81.5q23 80 62 172 l-72 -78l-70 -84q-98 -113 -245 -227q-184 -141 -287 -142q-66 0 -132.5 87t-66.5 159zM1415 1587q0 37 25.5 60.5t60.5 23.5q25 0 51.5 -24.5t26.5 -55.5q0 -37 -23 -61q-18 -25 -55 -25t-61.5 23.5t-24.5 58.5zM1700 1583q0 39 24.5 64.5t61.5 25.5q29 0 53.5 -25.5 t24.5 -56.5q0 -35 -22.5 -59.5t-59.5 -24.5q-31 0 -56.5 21.5t-25.5 54.5z" />
<glyph unicode="&#xdf;" horiz-adv-x="755" d="M-172 -231q0 53 158 290q49 72 127 185q92 131 190 266l229 311q55 72 105 131q43 51 80 88q133 129 235 129q53 0 88 -41t35 -96q0 -96 -121 -211l-223 -194q-123 -117 -123 -207q0 -59 21.5 -137t62.5 -78q49 0 135 43q37 16 60 20l16 -24q0 -43 -105.5 -78t-111.5 -45 l-82 -101q-49 -45 -121 -45q-80 0 -133 62q-49 61 -49 151q0 68 15.5 97.5t43.5 29.5q25 0 85.5 -67.5t121.5 -67.5l25 2q-23 31 -42.5 108t-19.5 124q0 117 121 237l228 195q125 113 125 188q0 23 -16.5 42.5t-45.5 23.5q-53 0 -213 -172q-109 -121 -278 -348 q-119 -160 -191 -265l-123 -190l-121 -195l-69 -120q-25 -43 -44.5 -62.5t-35.5 -19.5q-10 0 -24.5 12t-14.5 29zM371 154q0 -35 41 -76t77 -41q35 0 63 18.5t50 57.5q-94 10 -123 26l-86 72q-12 0 -18 -18z" />
<glyph unicode="&#xe0;" horiz-adv-x="774" d="M63 84q0 125 147.5 272.5t274.5 147.5q80 0 113 -76l109 92l41 -53q-100 -100 -144.5 -156.5t-67 -101.5t-22.5 -82q0 -70 66 -70q61 0 155 70l148 109q16 -8 20 -25q0 -41 -137 -137.5t-209 -96.5q-59 0 -90 56q-25 55 -25 127q-78 -78 -131 -119q-94 -72 -155 -72 q-35 0 -66 37q-10 16 -18.5 38t-8.5 40zM143 92q0 -37 27 -39q59 0 201 129q88 80 178 189q0 25 -19.5 44t-50.5 19q-88 0 -212 -124t-124 -218zM377 842q0 18 16 35q16 12 41 16q47 0 176 -156l86 -110h-61l-146 98q-113 82 -112 117z" />
<glyph unicode="&#xe1;" horiz-adv-x="774" d="M63 84q0 125 147.5 272.5t274.5 147.5q80 0 113 -76l109 92l41 -53q-100 -100 -144.5 -156.5t-67 -101.5t-22.5 -82q0 -70 66 -70q61 0 155 70l148 109q16 -8 20 -25q0 -41 -137 -137.5t-209 -96.5q-59 0 -90 56q-25 55 -25 127q-78 -78 -131 -119q-94 -72 -155 -72 q-35 0 -66 37q-10 16 -18.5 38t-8.5 40zM143 92q0 -37 27 -39q59 0 201 129q88 80 178 189q0 25 -19.5 44t-50.5 19q-88 0 -212 -124t-124 -218zM432 627l127 153q100 113 143 113q14 0 29 -8q25 -16 25 -45q0 -33 -156 -144l-104 -69h-64z" />
<glyph unicode="&#xe2;" horiz-adv-x="774" d="M63 84q0 125 147.5 272.5t274.5 147.5q80 0 113 -76l109 92l41 -53q-100 -100 -144.5 -156.5t-67 -101.5t-22.5 -82q0 -70 66 -70q61 0 155 70l148 109q16 -8 20 -25q0 -41 -137 -137.5t-209 -96.5q-59 0 -90 56q-25 55 -25 127q-78 -78 -131 -119q-94 -72 -155 -72 q-35 0 -66 37q-10 16 -18.5 38t-8.5 40zM143 92q0 -37 27 -39q59 0 201 129q88 80 178 189q0 25 -19.5 44t-50.5 19q-88 0 -212 -124t-124 -218zM330 627l235 258h105l102 -258h-57l-121 170l-209 -170h-55z" />
<glyph unicode="&#xe3;" horiz-adv-x="774" d="M63 84q0 125 147.5 272.5t274.5 147.5q80 0 113 -76l109 92l41 -53q-100 -100 -144.5 -156.5t-67 -101.5t-22.5 -82q0 -70 66 -70q61 0 155 70l148 109q16 -8 20 -25q0 -41 -137 -137.5t-209 -96.5q-59 0 -90 56q-25 55 -25 127q-78 -78 -131 -119q-94 -72 -155 -72 q-35 0 -66 37q-10 16 -18.5 38t-8.5 40zM143 92q0 -37 27 -39q59 0 201 129q88 80 178 189q0 25 -19.5 44t-50.5 19q-88 0 -212 -124t-124 -218zM362 625q18 94 58 129q39 39 86 39q35 0 125 -50q43 -25 71 -24q41 0 60 20l33 60h41q-14 -70 -43 -113q-37 -61 -101 -61 q-37 0 -131 51q-43 25 -74 24q-31 0 -53 -22l-28 -53h-44z" />
<glyph unicode="&#xe4;" horiz-adv-x="774" d="M63 84q0 125 147.5 272.5t274.5 147.5q80 0 113 -76l109 92l41 -53q-100 -100 -144.5 -156.5t-67 -101.5t-22.5 -82q0 -70 66 -70q61 0 155 70l148 109q16 -8 20 -25q0 -41 -137 -137.5t-209 -96.5q-59 0 -90 56q-25 55 -25 127q-78 -78 -131 -119q-94 -72 -155 -72 q-35 0 -66 37q-10 16 -18.5 38t-8.5 40zM143 92q0 -37 27 -39q59 0 201 129q88 80 178 189q0 25 -19.5 44t-50.5 19q-88 0 -212 -124t-124 -218zM334 696q0 35 18 66q8 10 23.5 18t34.5 8q39 0 62.5 -22t23.5 -61q0 -33 -20.5 -56.5t-57.5 -23.5q-29 0 -55.5 20.5 t-28.5 50.5zM618 700q0 39 25 65t59 26q31 0 55.5 -24.5t24.5 -55.5q0 -33 -23.5 -59.5t-58.5 -26.5q-33 0 -57.5 22.5t-24.5 52.5z" />
<glyph unicode="&#xe5;" horiz-adv-x="774" d="M63 84q0 125 147.5 272.5t274.5 147.5q80 0 113 -76l109 92l41 -53q-100 -100 -144.5 -156.5t-67 -101.5t-22.5 -82q0 -70 66 -70q61 0 155 70l148 109q16 -8 20 -25q0 -41 -137 -137.5t-209 -96.5q-59 0 -90 56q-25 55 -25 127q-78 -78 -131 -119q-94 -72 -155 -72 q-35 0 -66 37q-10 16 -18.5 38t-8.5 40zM143 92q0 -37 27 -39q59 0 201 129q88 80 178 189q0 25 -19.5 44t-50.5 19q-88 0 -212 -124t-124 -218zM467 764q0 57 41 98t100 41q55 0 96 -41t41 -98q0 -59 -38.5 -98t-100.5 -39q-57 0 -98 37.5t-41 99.5zM524 764 q0 -29 24.5 -55.5t59.5 -26.5q33 0 57.5 22.5t24.5 59.5q0 29 -24.5 55.5t-57.5 26.5q-35 0 -59.5 -22.5t-24.5 -59.5z" />
<glyph unicode="&#xe6;" horiz-adv-x="907" d="M63 84q0 125 147.5 272.5t274.5 147.5q80 0 113 -76l-8 -16q53 49 110.5 81.5t118.5 32.5q29 0 53.5 -18.5t24.5 -48.5q0 -100 -201 -252q-31 -23 -78 -55q-33 -23 -81 -54q16 -31 34.5 -44t55.5 -13q84 0 198 76l174 133q18 -10 23 -37q-72 -88 -176 -162 q-127 -90 -217 -90q-78 0 -128 54.5t-50 129.5l2 27q-31 -53 -136.5 -128t-160.5 -75q-35 0 -66 37q-10 16 -18.5 38t-8.5 40zM143 92q0 -37 27 -39q59 0 201 129q88 80 178 189q0 25 -19.5 44t-50.5 19q-88 0 -212 -124t-124 -218zM528 176q127 86 166 121q90 78 123 162 l-18 8q-27 0 -84 -45l-78 -70q-41 -39 -66 -78z" />
<glyph unicode="&#xe7;" horiz-adv-x="593" d="M76 -387l28 51q78 -31 164 -31q63 0 101 23q45 29 45 90q0 37 -39 61q-16 10 -36 16.5t-42 6.5q-33 0 -51 -4l-56 -19l-30 25l106 143q-63 6 -115.5 54.5t-52.5 113.5q0 135 134.5 257t269.5 122q29 0 41 -2t30 -14q31 -12 31 -53q0 -43 -33 -84q-12 -14 -28.5 -28.5 t-40.5 -33.5l-39 27q0 12 39 57q16 20 20 49q-10 18 -33 23q-84 0 -196.5 -116t-112.5 -200q0 -49 41 -74.5t96 -25.5q96 0 207 62q31 16 181 129q20 -2 22 -23q0 -61 -164 -152q-145 -76 -227 -88l-70 -94l70 6q72 0 121 -41t49 -112q0 -80 -78 -127q-61 -37 -154 -37 q-41 0 -91 10t-107 33z" />
<glyph unicode="&#xe8;" horiz-adv-x="532" d="M92 147q0 121 123 250t248 129q29 0 52.5 -19.5t23.5 -47.5q0 -100 -201 -252q-72 -53 -158 -109q24 -57 92 -57q63 0 146 45q27 12 225 164q20 -14 21 -37q-68 -86 -175 -162q-127 -90 -217 -90q-78 0 -129 54.5t-51 131.5zM172 176q137 96 166 121q90 78 123 162l-21 8 q-27 0 -84 -45l-77 -72q-39 -39 -66 -76q-4 -6 -12 -26q-21 -47 -29 -72zM221 842q0 20 17.5 34.5t42.5 16.5q41 0 176 -160l88 -106h-66l-145 100q-113 84 -113 115z" />
<glyph unicode="&#xe9;" horiz-adv-x="532" d="M92 147q0 121 123 250t248 129q29 0 52.5 -19.5t23.5 -47.5q0 -100 -201 -252q-72 -53 -158 -109q24 -57 92 -57q63 0 146 45q27 12 225 164q20 -14 21 -37q-68 -86 -175 -162q-127 -90 -217 -90q-78 0 -129 54.5t-51 131.5zM172 176q137 96 166 121q90 78 123 162l-21 8 q-27 0 -84 -45l-77 -72q-39 -39 -66 -76q-4 -6 -12 -26q-21 -47 -29 -72zM336 627l127 153q100 113 143 113q12 0 27 -8q25 -18 24 -45q0 -31 -112 -113l-148 -100h-61z" />
<glyph unicode="&#xea;" horiz-adv-x="532" d="M92 147q0 121 123 250t248 129q29 0 52.5 -19.5t23.5 -47.5q0 -100 -201 -252q-72 -53 -158 -109q24 -57 92 -57q63 0 146 45q27 12 225 164q20 -14 21 -37q-68 -86 -175 -162q-127 -90 -217 -90q-78 0 -129 54.5t-51 131.5zM172 176q137 96 166 121q90 78 123 162l-21 8 q-27 0 -84 -45l-77 -72q-39 -39 -66 -76q-4 -6 -12 -26q-21 -47 -29 -72zM231 627l238 258h102l103 -258h-56l-120 170l-209 -170h-58z" />
<glyph unicode="&#xeb;" horiz-adv-x="532" d="M92 147q0 121 123 250t248 129q29 0 52.5 -19.5t23.5 -47.5q0 -100 -201 -252q-72 -53 -158 -109q24 -57 92 -57q63 0 146 45q27 12 225 164q20 -14 21 -37q-68 -86 -175 -162q-127 -90 -217 -90q-78 0 -129 54.5t-51 131.5zM172 176q137 96 166 121q90 78 123 162l-21 8 q-27 0 -84 -45l-77 -72q-39 -39 -66 -76q-4 -6 -12 -26q-21 -47 -29 -72zM238 696q0 35 18 66q8 10 23.5 18t33.5 8q31 0 58.5 -22t27.5 -57q0 -31 -20.5 -57.5t-56.5 -26.5q-29 0 -55.5 20.5t-28.5 50.5zM522 700q0 39 24.5 65t59.5 26q31 0 55.5 -24.5t24.5 -55.5 q0 -35 -22.5 -59.5t-59.5 -24.5q-31 0 -59 18q-23 18 -23 55z" />
<glyph unicode="&#xec;" horiz-adv-x="358" d="M59 96q0 68 92.5 227.5t149.5 184.5q12 0 23 -10l18 -19l-143 -217q-62 -92 -62 -172q16 -6 51 -10q61 0 123 37l181 131l16 -37q-86 -92 -154 -141q-109 -80 -188 -80q-37 0 -72 31.5t-35 74.5zM182 842q0 23 15.5 35t40.5 16q47 0 176 -156l88 -110h-62l-147 98 q-111 80 -111 117z" />
<glyph unicode="&#xed;" horiz-adv-x="358" d="M59 96q0 72 91.5 230.5t150.5 181.5q12 0 23 -10l18 -19q-12 -47 -117 -182q-94 -122 -94 -188l6 -19q18 -25 49 -24q61 0 195 104l102 86q25 0 29 -31l-2 -12q-98 -96 -158 -139q-113 -84 -186 -84q-39 0 -74 33q-33 37 -33 73zM258 627l125 155q98 111 147 111 q18 0 35 -16q10 -14 15 -37q0 -29 -119 -115l-142 -98h-61z" />
<glyph unicode="&#xee;" horiz-adv-x="358" d="M59 96q0 72 91.5 230.5t150.5 181.5q12 0 23 -10l18 -19q-12 -47 -117 -182q-94 -122 -94 -188l6 -19q18 -25 49 -24q61 0 195 104l102 86q25 0 29 -31l-2 -12q-98 -96 -158 -139q-113 -84 -186 -84q-39 0 -74 33q-33 37 -33 73zM135 627l238 258h102l103 -258h-56 l-121 170l-208 -170h-58z" />
<glyph unicode="&#xef;" horiz-adv-x="358" d="M59 96q0 72 91.5 230.5t150.5 181.5q12 0 23 -10l18 -19q-12 -47 -117 -182q-94 -122 -94 -188l6 -19q18 -25 49 -24q61 0 195 104l102 86q25 0 29 -31l-2 -12q-98 -96 -158 -139q-113 -84 -186 -84q-39 0 -74 33q-33 37 -33 73zM123 705q0 39 22.5 61t61.5 22 q31 0 54.5 -26.5t23.5 -61.5t-27 -55t-61 -20q-27 0 -52 24q-18 23 -22 56zM406 700q0 39 24.5 65t58.5 26q31 0 55.5 -24.5t24.5 -55.5q0 -33 -23.5 -59.5t-58.5 -26.5q-33 0 -57 22.5t-24 52.5z" />
<glyph unicode="&#xf1;" horiz-adv-x="659" d="M2 25q0 31 141.5 254t180.5 256h10l16 -21q-8 -41 -24 -76q-6 -16 -15.5 -33.5t-29.5 -46.5q53 61 104 101q72 55 129 55q78 0 78 -72q0 -59 -85 -177t-85 -154q0 -25 14 -37l37 -17q102 18 199 88l106 86l25 -36q-80 -88 -154 -142q-106 -78 -186 -78q-43 0 -81 35 t-38 78q0 78 72 180q86 123 100 170l-18 13q-59 0 -234 -195l-215 -258zM285 625q25 94 59.5 131t83.5 37q35 0 125 -50q43 -25 72 -24q41 0 59 24l33 56h41q-14 -66 -43 -113q-37 -61 -99 -61q-37 0 -131 51q-43 25 -73 24q-31 0 -52 -20q-14 -18 -30 -55h-45z" />
<glyph unicode="&#xf2;" horiz-adv-x="647" d="M84 125q0 68 86 203t160 135q14 0 18 -4l10 -4q39 57 70 86q45 39 100 39q39 0 66 -34t27 -79q0 -59 -23 -117l-53 -108q78 0 155 34l146 76l12 -43q-70 -70 -168 -105.5t-203 -35.5q-59 -76 -118 -127q-82 -70 -154 -70q-49 0 -92 49q-39 51 -39 105zM156 125 q0 -25 18 -53q16 -19 49 -23q49 0 105 49l82 92q-55 37 -64 95l-6 114q-53 -14 -118.5 -116.5t-65.5 -157.5zM354 842q0 18 17 35q16 12 41 16q47 0 176 -156l88 -110h-62l-147 98q-113 82 -113 117zM397 332q0 -29 15.5 -53.5t44.5 -28.5l61 100q31 61 31 113 q0 20 -10.5 34.5t-34.5 18.5q-43 0 -75 -65.5t-32 -118.5z" />
<glyph unicode="&#xf3;" horiz-adv-x="647" d="M84 125q0 68 86 203t160 135q14 0 18 -4l10 -4q39 57 70 86q45 39 100 39q39 0 66 -34t27 -79q0 -59 -23 -117l-53 -108q78 0 155 34l146 76l12 -43q-70 -70 -168 -105.5t-203 -35.5q-59 -76 -118 -127q-82 -70 -154 -70q-49 0 -92 49q-39 51 -39 105zM156 125 q0 -25 18 -53q16 -19 49 -23q49 0 105 49l82 92q-55 37 -64 95l-6 114q-53 -14 -118.5 -116.5t-65.5 -157.5zM397 332q0 -29 15.5 -53.5t44.5 -28.5l61 100q31 61 31 113q0 20 -10.5 34.5t-34.5 18.5q-43 0 -75 -65.5t-32 -118.5zM432 627l127 153q100 113 143 113 q14 0 29 -8q25 -16 25 -45q0 -33 -156 -144l-104 -69h-64z" />
<glyph unicode="&#xf4;" horiz-adv-x="647" d="M84 125q0 68 86 203t160 135q14 0 18 -4l10 -4q39 57 70 86q45 39 100 39q39 0 66 -34t27 -79q0 -59 -23 -117l-53 -108q78 0 155 34l146 76l12 -43q-70 -70 -168 -105.5t-203 -35.5q-59 -76 -118 -127q-82 -70 -154 -70q-49 0 -92 49q-39 51 -39 105zM156 125 q0 -25 18 -53q16 -19 49 -23q49 0 105 49l82 92q-55 37 -64 95l-6 114q-53 -14 -118.5 -116.5t-65.5 -157.5zM289 627l239 258h101l104 -258h-57l-119 170l-209 -170h-59zM397 332q0 -29 15.5 -53.5t44.5 -28.5l61 100q31 61 31 113q0 20 -10.5 34.5t-34.5 18.5 q-43 0 -75 -65.5t-32 -118.5z" />
<glyph unicode="&#xf5;" horiz-adv-x="647" d="M84 125q0 68 86 203t160 135q14 0 18 -4l10 -4q39 57 70 86q45 39 100 39q39 0 66 -34t27 -79q0 -59 -23 -117l-53 -108q78 0 155 34l146 76l12 -43q-70 -70 -168 -105.5t-203 -35.5q-59 -76 -118 -127q-82 -70 -154 -70q-49 0 -92 49q-39 51 -39 105zM156 125 q0 -25 18 -53q16 -19 49 -23q49 0 105 49l82 92q-55 37 -64 95l-6 114q-53 -14 -118.5 -116.5t-65.5 -157.5zM285 625q25 94 59.5 131t83.5 37q35 0 125 -50q43 -25 72 -24q41 0 59 24l33 56h41q-14 -66 -43 -113q-37 -61 -99 -61q-37 0 -131 51q-43 25 -73 24 q-31 0 -52 -20q-14 -18 -30 -55h-45zM397 332q0 -29 15.5 -53.5t44.5 -28.5l61 100q31 61 31 113q0 20 -10.5 34.5t-34.5 18.5q-43 0 -75 -65.5t-32 -118.5z" />
<glyph unicode="&#xf6;" horiz-adv-x="647" d="M84 125q0 68 86 203t160 135q14 0 18 -4l10 -4q39 57 70 86q45 39 100 39q39 0 66 -34t27 -79q0 -59 -23 -117l-53 -108q78 0 155 34l146 76l12 -43q-70 -70 -168 -105.5t-203 -35.5q-59 -76 -118 -127q-82 -70 -154 -70q-49 0 -92 49q-39 51 -39 105zM156 125 q0 -25 18 -53q16 -19 49 -23q49 0 105 49l82 92q-55 37 -64 95l-6 114q-53 -14 -118.5 -116.5t-65.5 -157.5zM295 705q0 37 25.5 60t60.5 23q25 0 51.5 -24t26.5 -55q0 -29 -23.5 -56.5t-56.5 -27.5q-31 0 -60 22q-25 25 -24 58zM397 332q0 -29 15.5 -53.5t44.5 -28.5 l61 100q31 61 31 113q0 20 -10.5 34.5t-34.5 18.5q-43 0 -75 -65.5t-32 -118.5zM580 700q0 39 24.5 65t59.5 26q31 0 55 -24.5t24 -55.5q0 -35 -22.5 -59.5t-58.5 -24.5q-31 0 -56.5 19.5t-25.5 53.5z" />
<glyph unicode="&#xf8;" horiz-adv-x="647" d="M25 -29l79 80q-23 35 -22 74q0 70 86 203t162 133l28 -6q35 57 70 86q45 39 100 39q33 0 66 -35l35 35h51l-68 -68l9 -45q0 -59 -23 -117l-53 -108q78 0 155 34l146 76l12 -43q-70 -70 -168 -105.5t-203 -35.5q-59 -76 -118 -127q-82 -70 -154 -70q-27 0 -48.5 13.5 t-41.5 35.5l-49 -49h-51zM156 125l2 -19l184 183l-6 49v31l4 30q-55 -14 -119.5 -115.5t-64.5 -158.5zM178 74q16 -25 53 -25q43 0 99 53q39 37 80 88q-31 25 -52 64zM397 346l148 146q-16 24 -41 24q-43 0 -76 -63q-18 -43 -31 -107zM403 299q6 -16 21 -35q13 -10 33 -14 l57 94q35 70 35 105z" />
<glyph unicode="&#xf9;" horiz-adv-x="673" d="M70 88q0 49 19.5 106.5t57.5 120.5q80 131 168 185l43 -27q-70 -80 -131 -172q-82 -127 -82 -192q0 -37 23 -37q45 0 149 116l269 322l53 -31l-125 -186q-72 -123 -82 -203q12 -25 41 -27q88 0 207 89l106 86l23 -35q-39 -45 -79 -82t-73 -60q-104 -80 -184 -79 q-61 0 -90 49t-29 110q-61 -68 -92 -92q-63 -53 -115 -53q-33 0 -53 27.5t-24 64.5zM336 842q0 18 16 35q16 12 41 16q41 0 176 -160l88 -106h-63l-145 100q-113 84 -113 115z" />
<glyph unicode="&#xfa;" horiz-adv-x="673" d="M70 88q0 49 19.5 106.5t57.5 120.5q80 131 168 185l43 -27q-70 -80 -131 -172q-82 -127 -82 -192q0 -37 23 -37q45 0 149 116l269 322l53 -31l-125 -186q-72 -123 -82 -203q12 -25 41 -27q88 0 207 89l106 86l23 -35q-39 -45 -79 -82t-73 -60q-104 -80 -184 -79 q-61 0 -90 49t-29 110q-61 -68 -92 -92q-63 -53 -115 -53q-33 0 -53 27.5t-24 64.5zM375 627l125 155q98 111 145 111q14 0 27 -10q25 -18 24 -43q0 -29 -118 -115l-142 -98h-61z" />
<glyph unicode="&#xfb;" horiz-adv-x="673" d="M70 88q0 49 19.5 106.5t57.5 120.5q80 131 168 185l43 -27q-70 -80 -131 -172q-82 -127 -82 -192q0 -37 23 -37q45 0 149 116l269 322l53 -31l-125 -186q-72 -123 -82 -203q12 -25 41 -27q88 0 207 89l106 86l23 -35q-39 -45 -79 -82t-73 -60q-104 -80 -184 -79 q-61 0 -90 49t-29 110q-61 -68 -92 -92q-63 -53 -115 -53q-33 0 -53 27.5t-24 64.5zM289 627l239 258h101l104 -258h-57l-119 170l-209 -170h-59z" />
<glyph unicode="&#xfc;" horiz-adv-x="673" d="M70 88q0 49 19.5 106.5t57.5 120.5q80 131 168 185l43 -27q-70 -80 -131 -172q-82 -127 -82 -192q0 -37 23 -37q45 0 149 116l269 322l53 -31l-125 -186q-72 -123 -82 -203q12 -25 41 -27q88 0 207 89l106 86l23 -35q-39 -45 -79 -82t-73 -60q-104 -80 -184 -79 q-61 0 -90 49t-29 110q-61 -68 -92 -92q-63 -53 -115 -53q-33 0 -53 27.5t-24 64.5zM295 705q0 37 25.5 60t60.5 23q25 0 51.5 -24t26.5 -55q0 -29 -23.5 -56.5t-56.5 -27.5q-31 0 -60 22q-25 25 -24 58zM580 700q0 39 24.5 65t59.5 26q31 0 55 -24.5t24 -55.5 q0 -35 -22.5 -59.5t-58.5 -24.5q-31 0 -56.5 19.5t-25.5 53.5z" />
<glyph unicode="&#xff;" horiz-adv-x="591" d="M-231 -645q0 106 125 252q35 41 130 130t267 238q45 39 86 115l72 131l-132 -139q-96 -92 -155 -92q-33 0 -55.5 36.5t-22.5 69.5q0 80 89 244t159 164q18 0 37 -21v-10q-57 -74 -96.5 -130t-57.5 -89q-47 -88 -47 -139q0 -25 20 -27q66 0 291 256l148 172h16l31 -33 l-195 -368l35 22l61 37l15 -35q-18 -43 -82 -88l-64 -43q-172 -332 -307 -528q-143 -211 -291 -211q-31 0 -54 26.5t-23 59.5zM-166 -651q0 -27 27 -29q61 0 153 119q70 86 158 242l111 198l-9 6l-260 -252q-180 -186 -180 -284zM315 705q0 33 21.5 59.5t56.5 26.5 q29 0 56.5 -23.5t27.5 -58.5q0 -31 -20.5 -57.5t-57.5 -26.5q-31 0 -59 22q-25 25 -25 58zM598 700q0 39 24.5 65t61.5 26q25 0 51.5 -24.5t26.5 -55.5q0 -33 -23.5 -59.5t-58.5 -26.5q-33 0 -57.5 22.5t-24.5 52.5z" />
<glyph unicode="&#x152;" horiz-adv-x="1957" d="M229 305q0 231 177 526q188 313 395 375l14 -35q-197 -184 -330 -383q-168 -256 -168 -464q0 -117 68 -205t186 -88q90 0 211 69q92 49 185 136v16q0 197 133 348q96 111 303 225q0 121 57 217l2 27q0 100 -58 162.5t-159 62.5q-115 0 -274 -127q-125 -100 -221 -223 l-132 -172l-28 29q61 195 264 377q217 193 412 192q111 0 182 -57q72 -53 90 -166q117 121 295 197.5t344 76.5q117 0 184 -41q55 -31 56 -86q0 -86 -118 -173t-210 -87q-43 0 -49 41q102 37 178 84q125 76 125 131q0 35 -45 47.5t-105 12.5q-195 0 -385 -105.5t-292 -271.5 l-27 -55q-6 -18 -10 -54l6 -18l104 22l113 6q100 0 160 -22q96 -35 96 -111q0 -74 -76 -112q-61 -31 -143 -31q-29 0 -60.5 3t-88 21.5t-105.5 61.5l-64 61q-154 -61 -252 -194q-53 -70 -79.5 -143.5t-26.5 -155.5q0 -123 84 -186q39 -29 86 -43.5t115 -14.5q166 0 333 88 q57 31 293 189l17 -21q-78 -90 -145.5 -150.5t-135.5 -101.5q-168 -102 -362 -102q-125 0 -212 56.5t-145 174.5q-104 -86 -194 -131q-119 -59 -226 -59q-139 0 -240.5 105.5t-101.5 248.5zM1503 772q102 -106 240 -106q49 0 86 12q53 18 53 61q0 31 -65.5 50.5t-108.5 19.5 q-39 0 -74 -2t-76.5 -9t-54.5 -26z" />
<glyph unicode="&#x153;" horiz-adv-x="880" d="M84 125q0 68 86 203t160 135l28 -8q47 72 85 98.5t83 26.5q49 0 72 -38t23 -81l-3 -21q47 39 95.5 62.5t99.5 23.5q29 0 53.5 -17t24.5 -48q0 -78 -141 -205q-96 -84 -220 -158q25 -57 93 -57q100 0 245 109l127 100q16 -12 21 -37q-72 -90 -176 -164q-125 -88 -219 -88 q-70 0 -116 44t-59 116q-57 -66 -100 -98q-70 -51 -131 -52q-49 0 -92 49q-39 52 -39 105zM156 125q0 -25 18 -53q16 -19 49 -23q49 0 105 49l82 92q-55 37 -64 95l-6 114q-53 -14 -118.5 -116.5t-65.5 -157.5zM397 332q0 -29 15.5 -53.5t44.5 -28.5l61 100q31 61 31 113 q0 20 -10.5 34.5t-34.5 18.5q-43 0 -75 -65.5t-32 -118.5zM524 176q123 84 164 121q90 80 123 162l-20 8q-27 0 -84 -45l-76 -70q-18 -18 -34.5 -38.5t-31.5 -41.5z" />
<glyph unicode="&#x178;" horiz-adv-x="1245" d="M457 180q0 70 22 154q31 119 70 119l22 -2l13 -19q0 -16 -6.5 -47t-19.5 -78t-15 -60.5t-2 -31.5q0 -178 161 -178q88 0 191 98q57 53 141 174l299 412l58 72l92 112q-10 0 -27 -12q-14 -6 -24 -21q-133 -127 -230 -204q-47 -37 -102.5 -76t-138.5 -94l-58 -2 q-63 0 -108 45q-41 47 -41 114q0 123 135 320q68 98 137 196q78 111 143 199l-36 23q-59 0 -203 -95q-63 -41 -111.5 -77.5t-79.5 -67.5l-16 6l-6 17q0 82 182 190q94 55 160.5 84t111.5 29q37 0 65 -22.5t28 -63.5q0 -72 -109 -207l-209 -264q-113 -156 -112 -246 q0 -27 24 -64q25 -31 57 -32q98 0 330 204q80 72 170 160q82 80 221 221q197 203 217 207q4 -2 9.5 -4t11.5 -10t10 -27q0 -27 -47 -88l-70 -86l-657 -897q-100 -135 -186 -209q-133 -115 -246 -114q-90 0 -158 73q-63 76 -63 170zM1419 1507l86 111q128 156 185 156 q16 0 32 -19q14 -12 17 -35q0 -29 -111 -112l-147 -101h-62z" />
<glyph unicode="&#x2c6;" horiz-adv-x="495" d="M662 1538l239 258h100l105 -258h-57l-119 170l-209 -170h-59z" />
<glyph unicode="&#x2dc;" horiz-adv-x="585" d="M725 1505q18 74 45 113q39 57 100 57q37 0 125 -51q43 -25 72 -25q47 0 66 35l26 45h43q-25 -90 -61 -133q-39 -39 -82 -39q-35 0 -131 49q-43 25 -74 25q-33 0 -50.5 -18.5t-31.5 -57.5h-47z" />
<glyph unicode="&#x2000;" horiz-adv-x="926" />
<glyph unicode="&#x2001;" horiz-adv-x="1853" />
<glyph unicode="&#x2002;" horiz-adv-x="926" />
<glyph unicode="&#x2003;" horiz-adv-x="1853" />
<glyph unicode="&#x2004;" horiz-adv-x="617" />
<glyph unicode="&#x2005;" horiz-adv-x="463" />
<glyph unicode="&#x2006;" horiz-adv-x="308" />
<glyph unicode="&#x2007;" horiz-adv-x="308" />
<glyph unicode="&#x2008;" horiz-adv-x="231" />
<glyph unicode="&#x2009;" horiz-adv-x="370" />
<glyph unicode="&#x200a;" horiz-adv-x="102" />
<glyph unicode="&#x2010;" horiz-adv-x="833" d="M285 334q141 37 290 37q94 0 168 -15l13 -18q12 -18 12 -35l-2 -16l-33 -2l-51 2q-33 0 -51 4l-168 -2q-20 0 -68 -10l-41 -5q-25 0 -42 16.5t-27 43.5z" />
<glyph unicode="&#x2011;" horiz-adv-x="833" d="M285 334q141 37 290 37q94 0 168 -15l13 -18q12 -18 12 -35l-2 -16l-33 -2l-51 2q-33 0 -51 4l-168 -2q-20 0 -68 -10l-41 -5q-25 0 -42 16.5t-27 43.5z" />
<glyph unicode="&#x2012;" horiz-adv-x="833" d="M285 334q141 37 290 37q94 0 168 -15l13 -18q12 -18 12 -35l-2 -16l-33 -2l-51 2q-33 0 -51 4l-168 -2q-20 0 -68 -10l-41 -5q-25 0 -42 16.5t-27 43.5z" />
<glyph unicode="&#x2013;" horiz-adv-x="1083" d="M305 479v86h852v-86h-852z" />
<glyph unicode="&#x2014;" horiz-adv-x="1423" d="M383 479v86h1081v-86h-1081z" />
<glyph unicode="&#x2018;" horiz-adv-x="462" d="M586 1317v18q0 18 18 41q66 -39 131 -96q29 -20 58.5 -48t62.5 -63v-36l-8 -13q-25 0 -170 119z" />
<glyph unicode="&#x2019;" horiz-adv-x="561" d="M653 1130v39q96 92 146 129l104 76q18 -18 21 -35v-24l-131 -111q-104 -86 -134 -86z" />
<glyph unicode="&#x201a;" horiz-adv-x="561" d="M137 -16v36q31 31 60 58q37 35 59 53q57 51 131 96q16 -16 21 -37l-2 -22l-132 -111q-104 -86 -131 -86z" />
<glyph unicode="&#x201c;" horiz-adv-x="526" d="M561 1325l17 23q27 -4 38 -17l72 -172q18 -43 49 -129q7 -18 17 -45l-29 -27q-23 0 -93.5 162t-70.5 205zM680 1352l6 18l29 25q25 -12 88 -182.5t63 -204.5l-16 -19h-19q-18 8 -32 47l-82 207q-37 96 -37 109z" />
<glyph unicode="&#x201d;" horiz-adv-x="561" d="M639 999q0 45 61.5 212.5t92.5 183.5l22 -19q14 -14 14 -28q0 -10 -36 -107l-86 -213l-11 -29l-22 -20h-19zM754 973q0 23 62.5 183.5t75.5 171.5t42 20l18 -25q0 -41 -71.5 -206t-100.5 -169z" />
<glyph unicode="&#x201e;" horiz-adv-x="561" d="M147 -168q0 45 61.5 212t92.5 183l23 -18q14 -14 14 -29q0 -10 -37 -106l-86 -213l-10 -27q-2 -8 -23 -22h-18zM262 -195q0 23 62.5 184t76 172t41.5 19l19 -24q0 -43 -73 -209t-99 -166z" />
<glyph unicode="&#x2022;" horiz-adv-x="59" d="M106 391q0 18 11.5 36.5t46.5 23.5q23 0 41 -19q12 -16 16 -45q0 -27 -31 -45l-36 -8q-16 0 -33 18q-10 16 -15 39z" />
<glyph unicode="&#x2026;" horiz-adv-x="495" d="M463 885h55l121 -172l207 172h57l-237 -258h-103z" />
<glyph unicode="&#x202f;" horiz-adv-x="370" />
<glyph unicode="&#x205f;" horiz-adv-x="463" />
<glyph unicode="&#xe000;" horiz-adv-x="501" d="M0 0v502h502v-502h-502z" />
</font>
</defs>
</svg>
